<svg xmlns="http://www.w3.org/2000/svg" xmlns:xlink="http://www.w3.org/1999/xlink" width="1366" zoomAndPan="magnify" viewBox="0 0 1024.5 576" height="768" preserveAspectRatio="xMidYMid meet" version="1.0"><defs><clipPath id="925819a3e5"><path d="M 0 0.140625 L 1024 0.140625 L 1024 575.859375 L 0 575.859375 Z M 0 0.140625 " clip-rule="nonzero"/></clipPath><clipPath id="2e90b50c9b"><path d="M 0 65 L 1024 65 L 1024 360 L 0 360 Z M 0 65 " clip-rule="nonzero"/></clipPath><clipPath id="297f1f407d"><path d="M 0 194.804688 L 1024 194.804688 L 1024 501.507812 L 0 501.507812 Z M 0 194.804688 " clip-rule="nonzero"/></clipPath></defs><g clip-path="url(#925819a3e5)"><path fill="#ffffff" d="M 0 0.140625 L 1024.5 0.140625 L 1024.5 583.640625 L 0 583.640625 Z M 0 0.140625 " fill-opacity="1" fill-rule="nonzero"/><path fill="#ffffff" d="M 0 0.140625 L 1024.5 0.140625 L 1024.5 576.140625 L 0 576.140625 Z M 0 0.140625 " fill-opacity="1" fill-rule="nonzero"/><path fill="#ffffff" d="M 0 0.140625 L 1024.5 0.140625 L 1024.5 576.140625 L 0 576.140625 Z M 0 0.140625 " fill-opacity="1" fill-rule="nonzero"/></g><g clip-path="url(#2e90b50c9b)"><path fill="#416651" d="M 1065.128906 359.941406 L 1065.128906 191.886719 C 1014.328125 166.660156 963.894531 147.621094 914.445312 145.371094 C 836.042969 141.804688 759.769531 180.433594 681.066406 175.03125 C 602.363281 169.632812 521.578125 120.191406 452.332031 92.359375 C 383.085938 64.523438 325.367188 58.203125 235.804688 74.058594 C 167.539062 86.144531 80.765625 111.152344 -10.378906 139.207031 L -10.378906 359.941406 Z M 1065.128906 359.941406 " fill-opacity="1" fill-rule="evenodd"/></g><g clip-path="url(#297f1f407d)"><path fill="#416651" d="M 1070.605469 343.058594 C 1060.542969 372.605469 1047.152344 398.957031 1026.972656 422.882812 C 1010.976562 441.84375 990.191406 457.660156 968.175781 468.996094 C 921.421875 493.070312 868.492188 500.976562 816.367188 501.203125 C 748.882812 501.492188 681.65625 496.054688 614.535156 489.632812 C 545.523438 483.03125 476.507812 475.722656 407.15625 473.953125 C 337.5625 472.179688 267.636719 474.820312 198.164062 478.898438 C 166.664062 480.746094 135.011719 483.660156 103.4375 483.003906 C 90.914062 482.746094 78.058594 481.894531 65.359375 479.980469 C 61.78125 479.808594 58.203125 479.503906 54.632812 479.121094 C 53.152344 479.144531 51.679688 479.136719 50.214844 479.085938 C 30.449219 478.394531 12.390625 472.808594 -5.300781 464.179688 C -11.820312 461 -18.136719 457.238281 -24.199219 453.082031 C -27.933594 450.863281 -31.289062 448.113281 -34.777344 445.457031 C -36.089844 444.460938 -37.332031 443.371094 -38.511719 442.21875 C -40.941406 440.199219 -43.316406 438.132812 -45.632812 436.035156 C -57.484375 425.300781 -67.804688 412.347656 -75.8125 398.523438 C -93.761719 367.53125 -100.609375 331.914062 -101.640625 296.460938 C -102.523438 266.167969 -99.09375 235.957031 -97.433594 205.75 C -95.683594 173.78125 -97.273438 141.804688 -98.703125 109.855469 C -100.308594 73.921875 -100.390625 38.074219 -93.777344 2.554688 C -90.125 -17.074219 -83.460938 -35.855469 -75.324219 -54.058594 C -69.417969 -67.265625 -62.25 -80.003906 -53.65625 -91.648438 C -44.484375 -104.082031 -35.046875 -115.792969 -23.136719 -125.714844 C -11.773438 -135.175781 -0.117188 -143.746094 13.171875 -150.28125 C 26.511719 -156.839844 40.324219 -162.375 54.699219 -166.171875 C 66.230469 -169.214844 78.0625 -171.28125 89.910156 -172.863281 C 116.84375 -179.902344 145.144531 -182.949219 172.472656 -184.132812 C 239.257812 -187.019531 306.179688 -182.554688 372.847656 -179.039062 C 406.921875 -177.242188 441.015625 -175.800781 475.144531 -175.683594 C 509.675781 -175.570312 544.199219 -176.589844 578.707031 -177.75 C 647.796875 -180.070312 716.96875 -183.054688 786.074219 -179.554688 C 817.5625 -177.960938 849.527344 -175.824219 880.148438 -167.890625 C 904.332031 -161.628906 928.246094 -151.789062 949.390625 -138.429688 C 969.949219 -125.4375 988.710938 -109.453125 1004.105469 -90.613281 C 1013 -79.730469 1021.367188 -68.640625 1028.636719 -56.605469 C 1036.210938 -44.0625 1042.304688 -30.8125 1048.183594 -17.417969 C 1059.15625 7.570312 1066.769531 33.925781 1073.136719 60.417969 C 1080.832031 92.421875 1086.082031 125.171875 1089.070312 157.945312 C 1094.679688 219.5 1090.636719 284.265625 1070.605469 343.058594 Z M 1070.605469 343.058594 " fill-opacity="1" fill-rule="nonzero"/></g></svg>