<svg xmlns="http://www.w3.org/2000/svg" xmlns:xlink="http://www.w3.org/1999/xlink" width="500" zoomAndPan="magnify" viewBox="0 0 375 374.999991" height="500" preserveAspectRatio="xMidYMid meet" version="1.0"><defs><clipPath id="a29a61a4cb"><path d="M 187.5 0 C 83.945312 0 0 83.945312 0 187.5 C 0 291.054688 83.945312 375 187.5 375 C 291.054688 375 375 291.054688 375 187.5 C 375 83.945312 291.054688 0 187.5 0 " clip-rule="nonzero"/></clipPath><clipPath id="915df80c26"><path d="M 58 105 L 339 105 L 339 258 L 58 258 Z M 58 105 " clip-rule="nonzero"/></clipPath><clipPath id="8c6b25172b"><path d="M 22.960938 142.328125 L 284.363281 47.066406 L 352.128906 233.019531 L 90.730469 328.28125 Z M 22.960938 142.328125 " clip-rule="nonzero"/></clipPath><clipPath id="ab814dda2e"><path d="M 284.394531 47.054688 L 22.996094 142.316406 L 90.761719 328.269531 L 352.164062 233.007812 Z M 284.394531 47.054688 " clip-rule="nonzero"/></clipPath><clipPath id="af4210db7c"><path d="M 113 144 L 201 144 L 201 233 L 113 233 Z M 113 144 " clip-rule="nonzero"/></clipPath><clipPath id="2b741948c4"><path d="M 22.960938 142.328125 L 284.363281 47.066406 L 352.128906 233.019531 L 90.730469 328.28125 Z M 22.960938 142.328125 " clip-rule="nonzero"/></clipPath><clipPath id="bd59bfd247"><path d="M 284.394531 47.054688 L 22.996094 142.316406 L 90.761719 328.269531 L 352.164062 233.007812 Z M 284.394531 47.054688 " clip-rule="nonzero"/></clipPath><clipPath id="fafe62cd24"><path d="M 123 155 L 189 155 L 189 221 L 123 221 Z M 123 155 " clip-rule="nonzero"/></clipPath><clipPath id="59c19688a8"><path d="M 114.359375 168.574219 L 175.617188 146.25 L 197.941406 207.507812 L 136.683594 229.832031 Z M 114.359375 168.574219 " clip-rule="nonzero"/></clipPath><clipPath id="8bf57ce492"><path d="M 144.988281 157.410156 C 128.074219 163.578125 119.359375 182.285156 125.523438 199.203125 C 131.6875 216.117188 150.398438 224.832031 167.3125 218.667969 C 184.230469 212.503906 192.945312 193.792969 186.78125 176.878906 C 180.617188 159.960938 161.90625 151.246094 144.988281 157.410156 " clip-rule="nonzero"/></clipPath><clipPath id="f484ae8401"><path d="M 218.097656 214 L 320 214 L 320 280 L 218.097656 280 Z M 218.097656 214 " clip-rule="nonzero"/></clipPath></defs><g clip-path="url(#a29a61a4cb)"><rect x="-37.5" width="450" fill="#fffae5" y="-37.499999" height="449.999989" fill-opacity="1"/></g><g clip-path="url(#915df80c26)"><g clip-path="url(#8c6b25172b)"><g clip-path="url(#ab814dda2e)"><path fill="#0d6e72" d="M 276.515625 243.023438 L 287.339844 242.933594 C 290.644531 242.902344 293.355469 245.570312 293.386719 248.882812 L 293.394531 249.398438 C 293.421875 252.710938 290.769531 255.421875 287.457031 255.449219 L 276.636719 255.539062 C 273.328125 255.570312 270.617188 252.90625 270.585938 249.589844 L 270.582031 249.074219 C 270.550781 245.761719 273.207031 243.050781 276.515625 243.023438 Z M 107.433594 190.496094 C 108.511719 216.476562 129.851562 237.460938 155.804688 238.070312 C 184.460938 238.746094 207.644531 215.097656 206.453125 186.410156 C 205.375 160.429688 184.035156 139.449219 158.082031 138.835938 C 129.425781 138.164062 106.238281 161.808594 107.433594 190.496094 Z M 112.777344 123.78125 L 117.664062 111.285156 C 118.816406 108.34375 121.636719 106.398438 124.792969 106.371094 L 187.492188 105.839844 C 190.648438 105.8125 193.507812 107.710938 194.714844 110.632812 L 199.84375 123.046875 L 269.191406 122.460938 C 272.5 122.433594 275.210938 125.09375 275.242188 128.410156 L 275.246094 129.019531 C 275.277344 132.335938 272.621094 135.042969 269.3125 135.074219 L 249.773438 135.234375 C 246.582031 135.261719 243.820312 137.699219 243.644531 140.890625 C 243.453125 144.386719 246.246094 147.269531 249.6875 147.238281 L 259.339844 147.15625 C 262.527344 147.128906 265.339844 149.519531 265.574219 152.707031 C 265.832031 156.199219 263.101562 159.125 259.65625 159.15625 L 239.570312 159.324219 C 236.382812 159.351562 233.617188 161.789062 233.445312 164.980469 C 233.25 168.476562 236.042969 171.359375 239.484375 171.328125 L 298.929688 170.824219 C 302.121094 170.800781 304.929688 173.1875 305.167969 176.375 C 305.425781 179.867188 302.695312 182.792969 299.25 182.824219 L 250.242188 183.238281 C 247.050781 183.265625 244.289062 185.699219 244.113281 188.890625 C 243.921875 192.386719 246.710938 195.269531 250.152344 195.242188 L 332.660156 194.542969 C 335.851562 194.515625 338.664062 196.90625 338.898438 200.09375 C 339.15625 203.585938 336.425781 206.511719 332.984375 206.542969 L 231.148438 207.402344 C 227.957031 207.429688 225.195312 209.867188 225.019531 213.058594 C 224.824219 216.550781 227.617188 219.4375 231.058594 219.40625 L 284.773438 218.949219 C 287.964844 218.925781 290.773438 221.3125 291.011719 224.5 C 291.273438 227.992188 288.535156 230.921875 285.097656 230.949219 L 240.269531 231.328125 C 237.078125 231.355469 234.316406 233.792969 234.144531 236.984375 C 233.949219 240.480469 236.742188 243.359375 240.183594 243.332031 L 249.847656 243.25 C 253.152344 243.222656 255.863281 245.882812 255.894531 249.199219 L 255.902344 249.714844 C 255.929688 253.027344 253.277344 255.738281 249.964844 255.765625 L 97.257812 257.058594 C 76.210938 257.234375 58.984375 240.292969 58.78125 219.210938 L 58.226562 162.410156 C 58.023438 141.332031 74.917969 124.101562 95.964844 123.925781 Z M 307.460938 218.757812 L 314.417969 218.699219 C 317.726562 218.671875 320.433594 221.335938 320.46875 224.652344 C 320.5 227.964844 317.84375 230.671875 314.535156 230.699219 L 307.578125 230.761719 C 304.269531 230.789062 301.5625 228.125 301.527344 224.8125 C 301.496094 221.496094 304.152344 218.789062 307.460938 218.757812 Z M 288.453125 158.914062 L 278.535156 158.996094 C 275.226562 159.023438 272.515625 156.363281 272.484375 153.046875 C 272.453125 149.730469 275.109375 147.023438 278.417969 146.996094 L 288.339844 146.914062 C 291.648438 146.886719 294.355469 149.550781 294.386719 152.859375 C 294.417969 156.175781 291.765625 158.886719 288.453125 158.914062 " fill-opacity="1" fill-rule="nonzero"/></g></g></g><g clip-path="url(#af4210db7c)"><g clip-path="url(#2b741948c4)"><g clip-path="url(#bd59bfd247)"><path fill="#0d6e72" d="M 122.921875 188.378906 C 124.558594 188.367188 125.929688 187.125 126.082031 185.496094 C 127.449219 170.796875 139.058594 159.046875 153.75 157.5625 C 155.390625 157.394531 156.625 155.992188 156.613281 154.34375 C 156.59375 152.460938 154.96875 150.972656 153.097656 151.164062 C 135.355469 152.953125 121.335938 167.140625 119.6875 184.890625 C 119.511719 186.777344 121.03125 188.394531 122.921875 188.378906 Z M 156.515625 144.542969 C 180.730469 144.335938 200.550781 163.832031 200.789062 188.085938 C 201.023438 212.335938 181.582031 232.160156 157.371094 232.367188 C 133.15625 232.570312 113.332031 213.078125 113.097656 188.824219 C 112.863281 164.574219 132.300781 144.746094 156.515625 144.542969 " fill-opacity="1" fill-rule="nonzero"/></g></g></g><g clip-path="url(#fafe62cd24)"><g clip-path="url(#59c19688a8)"><g clip-path="url(#8bf57ce492)"><path fill="#ebdacc" d="M 114.359375 168.574219 L 175.617188 146.25 L 197.941406 207.507812 L 136.683594 229.832031 Z M 114.359375 168.574219 " fill-opacity="1" fill-rule="nonzero"/></g></g></g><path fill="#754c29" d="M 325.140625 233.882812 C 327.996094 218.183594 329.183594 211.734375 329.003906 210.265625 C 328.988281 210.265625 328.988281 210.265625 328.964844 210.265625 L 328.734375 210.265625 C 308.4375 210.265625 293.132812 210.226562 281.582031 210.183594 C 257.042969 210.109375 249.441406 210.09375 247.296875 210.683594 C 250.089844 211.585938 252.371094 214.046875 252.886719 216.960938 L 253.007812 217.632812 C 253.386719 220.070312 253.804688 221.160156 255.261719 221.160156 L 306.734375 221.160156 C 310.507812 221.160156 313.992188 224.105469 314.640625 227.839844 L 320.355469 260.21875 C 322.328125 249.242188 323.898438 240.636719 325.140625 233.882812 Z M 330.460938 208.886719 C 331.4375 210.019531 331.09375 211.84375 327.015625 234.222656 C 325.582031 242.023438 323.703125 252.316406 321.296875 265.835938 L 320.34375 271.136719 L 312.765625 228.167969 C 312.25 225.320312 309.605469 223.066406 306.734375 223.066406 L 255.261719 223.066406 C 251.914062 223.066406 251.414062 219.847656 251.109375 217.914062 L 251.011719 217.3125 C 250.53125 214.632812 248.140625 212.457031 245.429688 212.226562 L 244.144531 212.136719 L 244.605469 210.949219 C 244.660156 210.839844 244.679688 210.71875 244.71875 210.628906 C 245.464844 208.183594 245.464844 208.183594 281.605469 208.273438 C 293.132812 208.316406 308.4375 208.355469 328.734375 208.355469 L 328.929688 208.355469 C 329.347656 208.355469 329.980469 208.332031 330.460938 208.886719 " fill-opacity="1" fill-rule="nonzero"/><path fill="#ebdacc" d="M 329.003906 210.265625 C 329.183594 211.734375 327.996094 218.183594 325.140625 233.882812 C 323.898438 240.636719 322.328125 249.242188 320.355469 260.21875 L 314.640625 227.839844 C 313.992188 224.105469 310.507812 221.160156 306.734375 221.160156 L 255.261719 221.160156 C 253.804688 221.160156 253.386719 220.070312 253.007812 217.632812 L 252.886719 216.960938 C 252.371094 214.046875 250.089844 211.585938 247.296875 210.683594 C 249.441406 210.09375 257.042969 210.109375 281.582031 210.183594 C 293.132812 210.226562 308.4375 210.265625 328.734375 210.265625 L 328.964844 210.265625 C 328.988281 210.265625 328.988281 210.265625 329.003906 210.265625 " fill-opacity="1" fill-rule="nonzero"/><g clip-path="url(#f484ae8401)"><path fill="#754c29" d="M 317.242188 277.558594 L 317.203125 277.324219 L 308.648438 228.890625 C 308.5 228.058594 307.554688 227.230469 306.734375 227.230469 L 255.261719 227.230469 C 251.488281 227.230469 248.007812 224.3125 247.355469 220.570312 L 247.246094 219.921875 C 246.863281 217.460938 246.445312 216.371094 244.988281 216.371094 C 237.851562 216.371094 232.761719 216.355469 229.144531 216.335938 C 223.234375 216.3125 220.785156 216.296875 220.386719 216.445312 C 220.367188 216.46875 220.367188 216.484375 220.367188 216.484375 C 220.351562 217.4375 221.210938 222.328125 224.132812 238.652344 C 225.6875 247.378906 227.84375 259.472656 230.8125 276.273438 C 230.960938 277.117188 231.878906 277.9375 232.726562 277.9375 C 254.039062 277.9375 270.066406 277.976562 282.121094 278.011719 C 289.195312 278.035156 294.972656 278.050781 299.65625 278.050781 C 311.160156 278.050781 316.039062 277.953125 317.242188 277.558594 Z M 319.09375 276.996094 C 319.191406 277.535156 319.324219 278.167969 318.871094 278.71875 C 318.046875 279.726562 316.628906 279.957031 299.964844 279.957031 C 295.316406 279.957031 289.464844 279.945312 282.097656 279.921875 C 270.066406 279.882812 254.039062 279.847656 232.726562 279.847656 C 230.960938 279.847656 229.242188 278.355469 228.914062 276.601562 C 225.953125 259.800781 223.789062 247.699219 222.242188 238.996094 C 218.144531 215.992188 218.144531 215.992188 218.929688 215.269531 C 219.640625 214.386719 219.664062 214.386719 229.144531 214.425781 C 232.785156 214.449219 237.851562 214.460938 244.988281 214.460938 C 248.335938 214.460938 248.835938 217.683594 249.136719 219.617188 L 249.230469 220.25 C 249.734375 223.089844 252.394531 225.320312 255.261719 225.320312 L 306.734375 225.320312 C 308.484375 225.320312 310.21875 226.8125 310.53125 228.570312 L 319.09375 276.996094 " fill-opacity="1" fill-rule="nonzero"/></g><path fill="#efb07d" d="M 317.203125 277.324219 L 317.242188 277.558594 C 316.039062 277.953125 311.160156 278.050781 299.65625 278.050781 C 294.972656 278.050781 289.195312 278.035156 282.121094 278.011719 C 270.066406 277.976562 254.039062 277.9375 232.726562 277.9375 C 231.878906 277.9375 230.960938 277.117188 230.8125 276.273438 C 227.84375 259.472656 225.6875 247.378906 224.132812 238.652344 C 221.210938 222.328125 220.351562 217.4375 220.367188 216.484375 C 220.367188 216.484375 220.367188 216.46875 220.386719 216.445312 C 220.785156 216.296875 223.234375 216.3125 229.144531 216.335938 C 232.761719 216.355469 237.851562 216.371094 244.988281 216.371094 C 246.445312 216.371094 246.863281 217.460938 247.246094 219.921875 L 247.355469 220.570312 C 248.007812 224.3125 251.488281 227.230469 255.261719 227.230469 L 306.734375 227.230469 C 307.554688 227.230469 308.5 228.058594 308.648438 228.890625 L 317.203125 277.324219 " fill-opacity="1" fill-rule="nonzero"/></svg>