<svg xmlns="http://www.w3.org/2000/svg" xmlns:xlink="http://www.w3.org/1999/xlink" width="500" zoomAndPan="magnify" viewBox="0 0 375 374.999991" height="500" preserveAspectRatio="xMidYMid meet" version="1.0"><defs><clipPath id="e57c48bdd8"><path d="M 0 25.546875 L 375 25.546875 L 375 349.546875 L 0 349.546875 Z M 0 25.546875 " clip-rule="nonzero"/></clipPath></defs><g clip-path="url(#e57c48bdd8)"><path fill="#efb07d" d="M 370.355469 61.78125 C 367.378906 54.742188 363.121094 48.421875 357.699219 43 C 352.273438 37.574219 345.957031 33.316406 338.921875 30.339844 C 331.632812 27.253906 323.898438 25.691406 315.925781 25.691406 L 161.8125 25.691406 C 153.84375 25.691406 146.105469 27.253906 138.816406 30.339844 C 131.78125 33.316406 125.464844 37.574219 120.042969 43 C 114.621094 48.421875 110.359375 54.742188 107.386719 61.78125 C 104.300781 69.070312 102.738281 76.808594 102.738281 84.785156 L 102.738281 102.769531 L 59.074219 102.769531 C 51.105469 102.769531 43.363281 104.332031 36.078125 107.417969 C 29.042969 110.394531 22.726562 114.652344 17.300781 120.078125 C 11.878906 125.5 7.621094 131.820312 4.644531 138.859375 C 1.5625 146.148438 0 153.886719 0 161.859375 L 0 238.9375 C 0 250.847656 3.527344 262.332031 10.203125 272.144531 C 16.714844 281.714844 25.785156 289.113281 36.441406 293.535156 C 40.921875 295.398438 43.421875 300.191406 42.382812 304.933594 L 34.714844 340.0625 C 34.011719 343.269531 35.417969 346.566406 38.21875 348.28125 C 39.460938 349.042969 40.851562 349.417969 42.238281 349.417969 C 43.984375 349.417969 45.71875 348.824219 47.128906 347.667969 L 89.875 312.578125 C 101.296875 303.199219 115.726562 298.03125 130.507812 298.03125 L 213.183594 298.03125 C 221.15625 298.03125 228.894531 296.46875 236.183594 293.386719 C 243.21875 290.410156 249.535156 286.148438 254.957031 280.726562 C 260.378906 275.300781 264.640625 268.980469 267.613281 261.945312 C 270.699219 254.652344 272.261719 246.914062 272.261719 238.941406 L 272.261719 227.285156 C 276.84375 229.488281 281.148438 232.234375 285.128906 235.5 L 327.871094 270.589844 C 329.28125 271.75 331.015625 272.339844 332.761719 272.339844 C 334.148438 272.339844 335.542969 271.964844 336.78125 271.207031 C 339.582031 269.492188 340.984375 266.195312 340.285156 262.988281 L 332.617188 227.859375 C 331.578125 223.113281 334.082031 218.320312 338.5625 216.460938 C 349.214844 212.035156 358.289062 204.636719 364.796875 195.070312 C 371.472656 185.253906 375 173.773438 375 161.863281 L 375 84.785156 C 375 76.808594 373.4375 69.070312 370.355469 61.78125 Z M 256.847656 238.9375 C 256.847656 263.023438 237.261719 282.617188 213.183594 282.617188 L 130.507812 282.617188 C 112.171875 282.617188 94.265625 289.023438 80.097656 300.660156 L 54.503906 321.667969 L 57.441406 308.226562 C 60.070312 296.1875 53.726562 284.023438 42.351562 279.296875 C 25.984375 272.503906 15.410156 256.660156 15.410156 238.9375 L 15.410156 161.859375 C 15.410156 137.777344 34.996094 118.183594 59.074219 118.183594 L 213.183594 118.183594 C 213.5625 118.183594 213.9375 118.1875 214.308594 118.199219 C 230.761719 118.617188 244.984375 128.1875 252.066406 141.996094 C 252.386719 142.625 252.695312 143.261719 252.988281 143.90625 C 253.714844 145.515625 254.351562 147.179688 254.882812 148.890625 C 255.097656 149.574219 255.292969 150.265625 255.472656 150.960938 C 255.652344 151.65625 255.816406 152.363281 255.964844 153.070312 C 256.546875 155.910156 256.851562 158.851562 256.851562 161.863281 L 256.851562 238.9375 Z M 359.589844 161.859375 C 359.589844 179.585938 349.015625 195.425781 332.652344 202.222656 C 321.277344 206.945312 314.929688 219.113281 317.558594 231.148438 L 320.496094 244.59375 L 294.90625 223.582031 C 288.074219 217.976562 280.480469 213.605469 272.261719 210.546875 L 272.261719 161.863281 C 272.261719 153.886719 270.699219 146.148438 267.613281 138.859375 C 267.429688 138.417969 267.238281 137.980469 267.042969 137.546875 C 264.496094 131.902344 261.105469 126.738281 256.9375 122.152344 C 256.292969 121.445312 255.636719 120.753906 254.957031 120.078125 C 249.535156 114.652344 243.21875 110.394531 236.183594 107.417969 C 228.894531 104.332031 221.15625 102.769531 213.183594 102.769531 L 118.152344 102.769531 L 118.152344 84.785156 C 118.152344 60.703125 137.738281 41.109375 161.8125 41.109375 L 315.925781 41.109375 C 340 41.109375 359.585938 60.699219 359.585938 84.785156 L 359.585938 161.859375 Z M 359.589844 161.859375 " fill-opacity="1" fill-rule="nonzero"/></g><path fill="#efb07d" d="M 213.183594 154.15625 L 59.074219 154.15625 C 54.820312 154.15625 51.371094 157.605469 51.371094 161.863281 C 51.371094 166.121094 54.820312 169.570312 59.074219 169.570312 L 213.1875 169.570312 C 217.441406 169.570312 220.890625 166.121094 220.890625 161.863281 C 220.890625 157.605469 217.441406 154.15625 213.183594 154.15625 Z M 213.183594 154.15625 " fill-opacity="1" fill-rule="nonzero"/><path fill="#efb07d" d="M 136.132812 205.539062 L 59.074219 205.539062 C 54.820312 205.539062 51.371094 208.988281 51.371094 213.246094 C 51.371094 217.503906 54.820312 220.953125 59.074219 220.953125 L 136.132812 220.953125 C 140.386719 220.953125 143.835938 217.503906 143.835938 213.246094 C 143.835938 208.988281 140.386719 205.539062 136.132812 205.539062 Z M 136.132812 205.539062 " fill-opacity="1" fill-rule="nonzero"/></svg>