<svg xmlns="http://www.w3.org/2000/svg" xmlns:xlink="http://www.w3.org/1999/xlink" width="500" zoomAndPan="magnify" viewBox="0 0 375 374.999991" height="500" preserveAspectRatio="xMidYMid meet" version="1.0"><defs><clipPath id="ad31a4c2bf"><path d="M 0 6.722656 L 368.277344 6.722656 L 368.277344 375 L 0 375 Z M 0 6.722656 " clip-rule="nonzero"/></clipPath><clipPath id="600dd9bb47"><path d="M 184.140625 6.722656 C 82.441406 6.722656 0 89.164062 0 190.859375 C 0 292.558594 82.441406 375 184.140625 375 C 285.835938 375 368.277344 292.558594 368.277344 190.859375 C 368.277344 89.164062 285.835938 6.722656 184.140625 6.722656 " clip-rule="nonzero"/></clipPath><clipPath id="14ab69a0f4"><path d="M 26.210938 97.703125 L 215.890625 97.703125 L 215.890625 287.453125 L 26.210938 287.453125 Z M 26.210938 97.703125 " clip-rule="nonzero"/></clipPath><clipPath id="8b7d9f7ee9"><path d="M 26.210938 117 L 195 117 L 195 254 L 26.210938 254 Z M 26.210938 117 " clip-rule="nonzero"/></clipPath><clipPath id="eb4784b2b4"><path d="M 37 121 L 215.890625 121 L 215.890625 268 L 37 268 Z M 37 121 " clip-rule="nonzero"/></clipPath><clipPath id="a83a15c87e"><path d="M 241 86 L 350 86 L 350 167 L 241 167 Z M 241 86 " clip-rule="nonzero"/></clipPath><clipPath id="019a0eed19"><path d="M 221.683594 35.566406 L 412.15625 143.25 L 399.039062 166.457031 L 208.566406 58.769531 Z M 221.683594 35.566406 " clip-rule="nonzero"/></clipPath><clipPath id="e71be27f78"><path d="M 221.683594 35.566406 L 412.15625 143.25 L 304.472656 333.722656 L 114 226.039062 Z M 221.683594 35.566406 " clip-rule="nonzero"/></clipPath><clipPath id="f838b36d22"><path d="M 185 81 L 302 81 L 302 166 L 185 166 Z M 185 81 " clip-rule="nonzero"/></clipPath><clipPath id="6ae707e49e"><path d="M 102.203125 143.019531 L 287.007812 25.875 L 301.28125 48.390625 L 116.472656 165.53125 Z M 102.203125 143.019531 " clip-rule="nonzero"/></clipPath><clipPath id="ecee002230"><path d="M 102.203125 143.019531 L 287.007812 25.875 L 404.152344 210.679688 L 219.347656 327.824219 Z M 102.203125 143.019531 " clip-rule="nonzero"/></clipPath><clipPath id="e42f57fd99"><path d="M 174 91 L 334 91 L 334 256 L 174 256 Z M 174 91 " clip-rule="nonzero"/></clipPath><clipPath id="265812cb89"><path d="M 178.652344 86.460938 L 338.289062 96.28125 L 328.472656 255.917969 L 168.835938 246.101562 Z M 178.652344 86.460938 " clip-rule="nonzero"/></clipPath><clipPath id="53c94d89c2"><path d="M 338.707031 96.304688 L 179.066406 86.488281 L 169.25 246.125 L 328.886719 255.945312 Z M 338.707031 96.304688 " clip-rule="nonzero"/></clipPath></defs><g clip-path="url(#ad31a4c2bf)"><g clip-path="url(#600dd9bb47)"><path fill="#fffae5" d="M 0 6.722656 L 368.277344 6.722656 L 368.277344 375 L 0 375 Z M 0 6.722656 " fill-opacity="1" fill-rule="nonzero"/></g></g><g clip-path="url(#14ab69a0f4)"><path fill="#fffae5" d="M 215.890625 97.703125 L 26.140625 97.703125 L 26.140625 287.453125 L 215.890625 287.453125 Z M 215.890625 97.703125 " fill-opacity="1" fill-rule="nonzero"/></g><g clip-path="url(#8b7d9f7ee9)"><path fill="#efb07d" d="M 51.871094 196.714844 C 56.996094 198.195312 61.09375 202.105469 62.800781 207.152344 C 71.832031 233.90625 97.109375 253.148438 126.863281 253.148438 C 164.167969 253.148438 194.449219 222.863281 194.449219 185.558594 C 194.449219 148.253906 164.167969 117.96875 126.863281 117.96875 C 97.109375 117.96875 71.796875 137.246094 62.800781 163.964844 C 61.09375 169.011719 56.996094 172.882812 51.871094 174.402344 C 45.761719 176.183594 37.414062 178.574219 30.050781 180.699219 C 27.886719 181.308594 26.40625 183.320312 26.40625 185.558594 C 26.40625 187.796875 27.886719 189.769531 30.050781 190.414062 C 37.453125 192.539062 45.761719 194.96875 51.871094 196.714844 Z M 51.871094 196.714844 " fill-opacity="1" fill-rule="nonzero"/></g><g clip-path="url(#eb4784b2b4)"><path fill="#0d6e72" d="M 66.367188 210.566406 L 44.546875 204.265625 C 40.144531 203.015625 37.148438 198.992188 37.148438 194.402344 C 37.148438 189.847656 40.183594 185.824219 44.546875 184.535156 C 51.910156 182.410156 60.257812 179.980469 66.332031 178.234375 C 69.824219 177.210938 72.59375 174.589844 73.769531 171.136719 C 83.523438 142.371094 110.769531 121.613281 142.800781 121.613281 C 182.988281 121.613281 215.625 154.210938 215.625 194.402344 C 215.625 234.589844 182.988281 267.1875 142.839844 267.1875 C 110.808594 267.1875 83.558594 246.429688 73.84375 217.664062 C 72.667969 214.210938 69.859375 211.59375 66.367188 210.566406 Z M 47.964844 194.402344 L 69.253906 200.546875 C 76.007812 202.484375 81.398438 207.644531 83.675781 214.285156 C 83.675781 214.285156 83.675781 214.285156 83.675781 214.324219 C 91.984375 238.992188 115.324219 256.789062 142.800781 256.789062 C 177.222656 256.789062 205.191406 228.820312 205.191406 194.402344 C 205.191406 159.980469 177.257812 132.011719 142.800781 132.011719 C 115.324219 132.011719 91.984375 149.808594 83.675781 174.476562 C 83.675781 174.476562 83.675781 174.476562 83.675781 174.515625 C 81.398438 181.15625 76.007812 186.316406 69.253906 188.253906 C 63.332031 189.960938 55.210938 192.3125 47.964844 194.402344 Z M 47.964844 194.402344 " fill-opacity="1" fill-rule="nonzero"/></g><path fill="#0d6e72" d="M 162.875 194.402344 C 162.875 195.03125 162.9375 195.65625 163.058594 196.273438 C 163.183594 196.890625 163.367188 197.492188 163.605469 198.074219 C 163.847656 198.65625 164.144531 199.210938 164.492188 199.734375 C 164.84375 200.257812 165.242188 200.742188 165.6875 201.191406 C 166.132812 201.636719 166.617188 202.035156 167.144531 202.382812 C 167.667969 202.734375 168.21875 203.03125 168.804688 203.269531 C 169.386719 203.511719 169.984375 203.695312 170.605469 203.816406 C 171.222656 203.941406 171.847656 204 172.476562 204 C 173.109375 204 173.730469 203.941406 174.351562 203.816406 C 174.96875 203.695312 175.570312 203.511719 176.152344 203.269531 C 176.734375 203.03125 177.289062 202.734375 177.8125 202.382812 C 178.335938 202.035156 178.820312 201.636719 179.265625 201.191406 C 179.710938 200.742188 180.109375 200.257812 180.460938 199.734375 C 180.8125 199.210938 181.105469 198.65625 181.347656 198.074219 C 181.589844 197.492188 181.769531 196.890625 181.894531 196.273438 C 182.015625 195.65625 182.078125 195.03125 182.078125 194.402344 C 182.078125 193.769531 182.015625 193.144531 181.894531 192.527344 C 181.769531 191.910156 181.589844 191.308594 181.347656 190.726562 C 181.105469 190.144531 180.8125 189.589844 180.460938 189.066406 C 180.109375 188.542969 179.710938 188.058594 179.265625 187.609375 C 178.820312 187.164062 178.335938 186.765625 177.8125 186.417969 C 177.289062 186.066406 176.734375 185.769531 176.152344 185.53125 C 175.570312 185.289062 174.96875 185.105469 174.351562 184.984375 C 173.730469 184.859375 173.109375 184.800781 172.476562 184.800781 C 171.847656 184.800781 171.222656 184.859375 170.605469 184.984375 C 169.984375 185.105469 169.386719 185.289062 168.804688 185.53125 C 168.21875 185.769531 167.667969 186.066406 167.144531 186.417969 C 166.617188 186.765625 166.132812 187.164062 165.6875 187.609375 C 165.242188 188.058594 164.84375 188.542969 164.492188 189.066406 C 164.144531 189.589844 163.847656 190.144531 163.605469 190.726562 C 163.367188 191.308594 163.183594 191.910156 163.058594 192.527344 C 162.9375 193.144531 162.875 193.769531 162.875 194.402344 Z M 162.875 194.402344 " fill-opacity="1" fill-rule="nonzero"/><path fill="#0d6e72" d="M 132.328125 194.402344 C 132.328125 195.03125 132.386719 195.65625 132.511719 196.273438 C 132.632812 196.890625 132.816406 197.492188 133.058594 198.074219 C 133.296875 198.65625 133.59375 199.210938 133.945312 199.734375 C 134.292969 200.257812 134.691406 200.742188 135.136719 201.191406 C 135.585938 201.636719 136.070312 202.035156 136.59375 202.382812 C 137.117188 202.734375 137.671875 203.03125 138.253906 203.269531 C 138.835938 203.511719 139.4375 203.695312 140.054688 203.816406 C 140.671875 203.941406 141.296875 204 141.925781 204 C 142.558594 204 143.183594 203.941406 143.800781 203.816406 C 144.417969 203.695312 145.019531 203.511719 145.601562 203.269531 C 146.183594 203.03125 146.738281 202.734375 147.261719 202.382812 C 147.785156 202.035156 148.269531 201.636719 148.714844 201.191406 C 149.164062 200.742188 149.5625 200.257812 149.910156 199.734375 C 150.261719 199.210938 150.558594 198.65625 150.796875 198.074219 C 151.039062 197.492188 151.222656 196.890625 151.34375 196.273438 C 151.46875 195.65625 151.527344 195.03125 151.527344 194.402344 C 151.527344 193.769531 151.46875 193.144531 151.34375 192.527344 C 151.222656 191.910156 151.039062 191.308594 150.796875 190.726562 C 150.558594 190.144531 150.261719 189.589844 149.910156 189.066406 C 149.5625 188.542969 149.164062 188.058594 148.714844 187.609375 C 148.269531 187.164062 147.785156 186.765625 147.261719 186.417969 C 146.738281 186.066406 146.183594 185.769531 145.601562 185.53125 C 145.019531 185.289062 144.417969 185.105469 143.800781 184.984375 C 143.183594 184.859375 142.558594 184.800781 141.925781 184.800781 C 141.296875 184.800781 140.671875 184.859375 140.054688 184.984375 C 139.4375 185.105469 138.835938 185.289062 138.253906 185.53125 C 137.671875 185.769531 137.117188 186.066406 136.59375 186.417969 C 136.070312 186.765625 135.585938 187.164062 135.136719 187.609375 C 134.691406 188.058594 134.292969 188.542969 133.945312 189.066406 C 133.59375 189.589844 133.296875 190.144531 133.058594 190.726562 C 132.816406 191.308594 132.632812 191.910156 132.511719 192.527344 C 132.386719 193.144531 132.328125 193.769531 132.328125 194.402344 Z M 132.328125 194.402344 " fill-opacity="1" fill-rule="nonzero"/><path fill="#0d6e72" d="M 101.8125 194.402344 C 101.8125 195.03125 101.875 195.65625 102 196.273438 C 102.121094 196.890625 102.304688 197.492188 102.546875 198.074219 C 102.785156 198.65625 103.082031 199.210938 103.433594 199.734375 C 103.78125 200.257812 104.179688 200.742188 104.625 201.191406 C 105.074219 201.636719 105.558594 202.035156 106.082031 202.382812 C 106.605469 202.734375 107.160156 203.03125 107.742188 203.269531 C 108.324219 203.511719 108.925781 203.695312 109.542969 203.816406 C 110.160156 203.941406 110.785156 204 111.414062 204 C 112.046875 204 112.671875 203.941406 113.289062 203.816406 C 113.90625 203.695312 114.507812 203.511719 115.089844 203.269531 C 115.671875 203.03125 116.226562 202.734375 116.75 202.382812 C 117.273438 202.035156 117.757812 201.636719 118.203125 201.191406 C 118.652344 200.742188 119.046875 200.257812 119.398438 199.734375 C 119.75 199.210938 120.046875 198.65625 120.285156 198.074219 C 120.527344 197.492188 120.710938 196.890625 120.832031 196.273438 C 120.957031 195.65625 121.015625 195.03125 121.015625 194.402344 C 121.015625 193.769531 120.957031 193.144531 120.832031 192.527344 C 120.710938 191.910156 120.527344 191.308594 120.285156 190.726562 C 120.046875 190.144531 119.75 189.589844 119.398438 189.066406 C 119.046875 188.542969 118.652344 188.058594 118.203125 187.609375 C 117.757812 187.164062 117.273438 186.765625 116.75 186.417969 C 116.226562 186.066406 115.671875 185.769531 115.089844 185.53125 C 114.507812 185.289062 113.90625 185.105469 113.289062 184.984375 C 112.671875 184.859375 112.046875 184.800781 111.414062 184.800781 C 110.785156 184.800781 110.160156 184.859375 109.542969 184.984375 C 108.925781 185.105469 108.324219 185.289062 107.742188 185.53125 C 107.160156 185.769531 106.605469 186.066406 106.082031 186.417969 C 105.558594 186.765625 105.074219 187.164062 104.625 187.609375 C 104.179688 188.058594 103.78125 188.542969 103.433594 189.066406 C 103.082031 189.589844 102.785156 190.144531 102.546875 190.726562 C 102.304688 191.308594 102.121094 191.910156 102 192.527344 C 101.875 193.144531 101.8125 193.769531 101.8125 194.402344 Z M 101.8125 194.402344 " fill-opacity="1" fill-rule="nonzero"/><g clip-path="url(#a83a15c87e)"><g clip-path="url(#019a0eed19)"><g clip-path="url(#e71be27f78)"><path fill="#efb07d" d="M 344.511719 203.929688 C 350.820312 189.742188 358.410156 154.253906 318.601562 121.839844 C 320.738281 120.28125 322.828125 118.097656 324.273438 115.542969 C 329.445312 106.394531 326.144531 94.621094 317.035156 89.472656 C 307.734375 84.214844 295.925781 87.496094 290.773438 96.605469 C 288.878906 99.957031 288.023438 103.699219 288.308594 107.28125 C 270.894531 107.394531 262.90625 110.671875 241.769531 121.550781 L 241.921875 121.636719 L 242.503906 121.316406 L 242.746094 121.25 C 259.78125 115.84375 278.90625 117.152344 295.902344 126.761719 C 296.207031 126.933594 296.550781 127.128906 296.855469 127.300781 C 326.066406 141.902344 348.632812 172.617188 344.511719 203.929688 Z M 344.511719 203.929688 " fill-opacity="1" fill-rule="nonzero"/></g></g></g><g clip-path="url(#f838b36d22)"><g clip-path="url(#6ae707e49e)"><g clip-path="url(#ecee002230)"><path fill="#efb07d" d="M 308.597656 114.144531 C 299.066406 101.890625 271.355469 78.453125 223.992188 98.265625 C 223.628906 95.644531 222.6875 92.769531 221.117188 90.292969 C 215.492188 81.417969 203.554688 78.773438 194.714844 84.375 C 185.695312 90.09375 183.015625 102.058594 188.617188 110.894531 C 190.679688 114.148438 193.570312 116.667969 196.867188 118.105469 C 188.75 133.511719 187.871094 142.101562 187.492188 165.875 L 187.640625 165.78125 L 187.632812 165.113281 L 187.6875 164.871094 C 190.957031 147.300781 201.132812 131.050781 217.625 120.597656 C 217.921875 120.410156 218.253906 120.199219 218.550781 120.011719 C 245.207031 101.148438 282.933594 95.738281 308.597656 114.144531 Z M 308.597656 114.144531 " fill-opacity="1" fill-rule="nonzero"/></g></g></g><g clip-path="url(#e42f57fd99)"><g clip-path="url(#265812cb89)"><g clip-path="url(#53c94d89c2)"><path fill="#0d6e72" d="M 258.472656 91.667969 C 302.332031 94.367188 335.886719 129.140625 333.414062 169.355469 C 332.445312 185.132812 326.015625 199.355469 315.96875 210.714844 L 328.183594 246.214844 C 329.371094 249.679688 327.53125 253.445312 324.070312 254.640625 C 322.332031 255.234375 320.527344 255.078125 319 254.328125 L 277.84375 234.242188 C 268.9375 236.730469 259.402344 237.882812 249.515625 237.277344 C 205.640625 234.578125 172.101562 199.78125 174.570312 159.585938 C 177.046875 119.371094 214.597656 88.96875 258.472656 91.667969 Z M 286.476562 176.433594 C 291.964844 176.773438 296.675781 172.601562 297.015625 167.117188 C 297.351562 161.625 293.183594 156.917969 287.695312 156.578125 C 282.214844 156.242188 277.496094 160.402344 277.160156 165.898438 C 276.820312 171.378906 280.992188 176.097656 286.476562 176.433594 Z M 253.382812 174.398438 C 258.871094 174.738281 263.585938 170.566406 263.921875 165.082031 C 264.257812 159.589844 260.09375 154.882812 254.605469 154.542969 C 249.121094 154.207031 244.402344 158.367188 244.066406 163.863281 C 243.730469 169.34375 247.902344 174.0625 253.382812 174.398438 Z M 220.289062 172.363281 C 225.777344 172.703125 230.492188 168.53125 230.828125 163.046875 C 231.167969 157.554688 227 152.847656 221.511719 152.507812 C 216.03125 152.171875 211.3125 156.332031 210.972656 161.828125 C 210.636719 167.308594 214.808594 172.027344 220.289062 172.363281 Z M 220.289062 172.363281 " fill-opacity="1" fill-rule="nonzero"/></g></g></g></svg>