<svg xmlns="http://www.w3.org/2000/svg" xmlns:xlink="http://www.w3.org/1999/xlink" width="500" zoomAndPan="magnify" viewBox="0 0 375 374.999991" height="500" preserveAspectRatio="xMidYMid meet" version="1.0"><defs><clipPath id="e9b82bc483"><path d="M 7.113281 7.113281 L 92 7.113281 L 92 92 L 7.113281 92 Z M 7.113281 7.113281 " clip-rule="nonzero"/></clipPath><clipPath id="4698c2118b"><path d="M 282 7.113281 L 367.863281 7.113281 L 367.863281 92 L 282 92 Z M 282 7.113281 " clip-rule="nonzero"/></clipPath><clipPath id="d63c9e9e4e"><path d="M 7.113281 282 L 92 282 L 92 367.863281 L 7.113281 367.863281 Z M 7.113281 282 " clip-rule="nonzero"/></clipPath><clipPath id="c7e6e98991"><path d="M 282 282 L 367.863281 282 L 367.863281 367.863281 L 282 367.863281 Z M 282 282 " clip-rule="nonzero"/></clipPath></defs><g clip-path="url(#e9b82bc483)"><path fill="#efb07d" d="M 7.113281 17.722656 C 7.113281 11.863281 11.863281 7.113281 17.722656 7.113281 L 81.386719 7.113281 C 87.246094 7.113281 91.996094 11.863281 91.996094 17.722656 C 91.996094 23.585938 87.246094 28.335938 81.386719 28.335938 L 28.335938 28.335938 L 28.335938 81.386719 C 28.335938 87.246094 23.585938 91.996094 17.722656 91.996094 C 11.863281 91.996094 7.113281 87.246094 7.113281 81.386719 Z M 7.113281 17.722656 " fill-opacity="1" fill-rule="evenodd"/></g><g clip-path="url(#4698c2118b)"><path fill="#efb07d" d="M 357.253906 7.113281 C 363.113281 7.113281 367.863281 11.863281 367.863281 17.722656 L 367.863281 81.386719 C 367.863281 87.246094 363.113281 91.996094 357.253906 91.996094 C 351.394531 91.996094 346.644531 87.246094 346.644531 81.386719 L 346.644531 28.335938 L 293.59375 28.335938 C 287.734375 28.335938 282.980469 23.585938 282.980469 17.722656 C 282.980469 11.863281 287.734375 7.113281 293.59375 7.113281 Z M 357.253906 7.113281 " fill-opacity="1" fill-rule="evenodd"/></g><g clip-path="url(#d63c9e9e4e)"><path fill="#efb07d" d="M 17.722656 367.863281 C 11.863281 367.863281 7.113281 363.113281 7.113281 357.253906 L 7.113281 293.59375 C 7.113281 287.734375 11.863281 282.980469 17.722656 282.980469 C 23.585938 282.980469 28.335938 287.734375 28.335938 293.59375 L 28.335938 346.644531 L 81.386719 346.644531 C 87.246094 346.644531 91.996094 351.394531 91.996094 357.253906 C 91.996094 363.113281 87.246094 367.863281 81.386719 367.863281 Z M 17.722656 367.863281 " fill-opacity="1" fill-rule="evenodd"/></g><g clip-path="url(#c7e6e98991)"><path fill="#efb07d" d="M 367.863281 357.253906 C 367.863281 363.113281 363.113281 367.863281 357.253906 367.863281 L 293.59375 367.863281 C 287.734375 367.863281 282.980469 363.113281 282.980469 357.253906 C 282.980469 351.394531 287.734375 346.644531 293.59375 346.644531 L 346.644531 346.644531 L 346.644531 293.59375 C 346.644531 287.734375 351.394531 282.980469 357.253906 282.980469 C 363.113281 282.980469 367.863281 287.734375 367.863281 293.59375 Z M 367.863281 357.253906 " fill-opacity="1" fill-rule="evenodd"/></g><path fill="#efb07d" d="M 187.488281 123.828125 C 129.917969 123.828125 87.332031 161.878906 72.898438 181.121094 C 70.070312 184.894531 70.070312 190.082031 72.898438 193.855469 C 87.332031 213.101562 129.917969 251.152344 187.488281 251.152344 C 245.058594 251.152344 287.644531 213.101562 302.082031 193.855469 C 304.910156 190.082031 304.910156 184.894531 302.082031 181.121094 C 287.644531 161.878906 245.058594 123.828125 187.488281 123.828125 Z M 147.714844 222.59375 C 124.023438 213.792969 105.636719 198.808594 95.21875 187.488281 C 105.636719 176.167969 124.023438 161.183594 147.714844 152.382812 C 139.453125 161.738281 134.4375 174.027344 134.4375 187.488281 C 134.4375 200.949219 139.453125 213.242188 147.714844 222.59375 Z M 227.265625 222.59375 C 250.953125 213.792969 269.339844 198.808594 279.761719 187.488281 C 269.339844 176.167969 250.953125 161.183594 227.265625 152.382812 C 235.527344 161.738281 240.539062 174.027344 240.539062 187.488281 C 240.539062 200.949219 235.527344 213.242188 227.265625 222.59375 Z M 155.660156 187.488281 C 155.660156 169.910156 169.910156 155.660156 187.488281 155.660156 C 205.066406 155.660156 219.320312 169.910156 219.320312 187.488281 C 219.320312 205.066406 205.066406 219.320312 187.488281 219.320312 C 169.910156 219.320312 155.660156 205.066406 155.660156 187.488281 Z M 155.660156 187.488281 " fill-opacity="1" fill-rule="evenodd"/></svg>