<svg xmlns="http://www.w3.org/2000/svg" xmlns:xlink="http://www.w3.org/1999/xlink" width="500" zoomAndPan="magnify" viewBox="0 0 375 374.999991" height="500" preserveAspectRatio="xMidYMid meet" version="1.0"><defs><clipPath id="4b493fafec"><path d="M 187.5 0 C 83.945312 0 0 83.945312 0 187.5 C 0 291.054688 83.945312 375 187.5 375 C 291.054688 375 375 291.054688 375 187.5 C 375 83.945312 291.054688 0 187.5 0 " clip-rule="nonzero"/></clipPath><clipPath id="3e5af9d29e"><path d="M 35.753906 154.019531 L 42.503906 154.019531 L 42.503906 160.769531 L 35.753906 160.769531 Z M 35.753906 154.019531 " clip-rule="nonzero"/></clipPath><clipPath id="2fa981503a"><path d="M 332.6875 154.019531 L 339.4375 154.019531 L 339.4375 160.769531 L 332.6875 160.769531 Z M 332.6875 154.019531 " clip-rule="nonzero"/></clipPath><clipPath id="9f0edb1a8b"><path d="M 96.011719 301.25 L 118.511719 301.25 L 118.511719 323.75 L 96.011719 323.75 Z M 96.011719 301.25 " clip-rule="nonzero"/></clipPath><clipPath id="449daadb16"><path d="M 264.164062 301.25 L 286.664062 301.25 L 286.664062 323.75 L 264.164062 323.75 Z M 264.164062 301.25 " clip-rule="nonzero"/></clipPath><clipPath id="9a6c02df26"><path d="M 98 78.933594 L 277.183594 78.933594 L 277.183594 296.433594 L 98 296.433594 Z M 98 78.933594 " clip-rule="nonzero"/></clipPath></defs><g clip-path="url(#4b493fafec)"><rect x="-37.5" width="450" fill="#fffae5" y="-37.499999" height="449.999989" fill-opacity="1"/></g><g clip-path="url(#3e5af9d29e)"><path fill="#efb07d" d="M 42.503906 157.394531 C 42.503906 157.84375 42.417969 158.273438 42.246094 158.6875 C 42.074219 159.101562 41.832031 159.464844 41.515625 159.78125 C 41.199219 160.097656 40.835938 160.34375 40.421875 160.511719 C 40.007812 160.683594 39.578125 160.769531 39.128906 160.769531 C 38.679688 160.769531 38.25 160.683594 37.835938 160.511719 C 37.425781 160.34375 37.058594 160.097656 36.742188 159.78125 C 36.425781 159.464844 36.183594 159.101562 36.011719 158.6875 C 35.839844 158.273438 35.753906 157.84375 35.753906 157.394531 C 35.753906 156.949219 35.839844 156.515625 36.011719 156.105469 C 36.183594 155.691406 36.425781 155.324219 36.742188 155.007812 C 37.058594 154.691406 37.425781 154.449219 37.835938 154.277344 C 38.25 154.105469 38.679688 154.019531 39.128906 154.019531 C 39.578125 154.019531 40.007812 154.105469 40.421875 154.277344 C 40.835938 154.449219 41.199219 154.691406 41.515625 155.007812 C 41.832031 155.324219 42.074219 155.691406 42.246094 156.105469 C 42.417969 156.515625 42.503906 156.949219 42.503906 157.394531 Z M 42.503906 157.394531 " fill-opacity="1" fill-rule="nonzero"/></g><g clip-path="url(#2fa981503a)"><path fill="#efb07d" d="M 339.4375 157.394531 C 339.4375 157.84375 339.351562 158.273438 339.179688 158.6875 C 339.007812 159.101562 338.765625 159.464844 338.449219 159.78125 C 338.132812 160.097656 337.765625 160.34375 337.355469 160.511719 C 336.941406 160.683594 336.511719 160.769531 336.0625 160.769531 C 335.613281 160.769531 335.183594 160.683594 334.769531 160.511719 C 334.359375 160.34375 333.992188 160.097656 333.675781 159.78125 C 333.359375 159.464844 333.117188 159.101562 332.945312 158.6875 C 332.773438 158.273438 332.6875 157.84375 332.6875 157.394531 C 332.6875 156.949219 332.773438 156.515625 332.945312 156.105469 C 333.117188 155.691406 333.359375 155.324219 333.675781 155.007812 C 333.992188 154.691406 334.359375 154.449219 334.769531 154.277344 C 335.183594 154.105469 335.613281 154.019531 336.0625 154.019531 C 336.511719 154.019531 336.941406 154.105469 337.355469 154.277344 C 337.765625 154.449219 338.132812 154.691406 338.449219 155.007812 C 338.765625 155.324219 339.007812 155.691406 339.179688 156.105469 C 339.351562 156.515625 339.4375 156.949219 339.4375 157.394531 Z M 339.4375 157.394531 " fill-opacity="1" fill-rule="nonzero"/></g><g clip-path="url(#9f0edb1a8b)"><path fill="#efb07d" d="M 107.261719 301.25 C 106.167969 310.515625 105.277344 311.40625 96.011719 312.5 C 96.03125 312.503906 96.050781 312.507812 96.070312 312.507812 C 105.28125 313.601562 106.167969 314.507812 107.261719 323.75 C 108.359375 314.488281 109.246094 313.597656 118.511719 312.5 C 109.246094 311.40625 108.359375 310.515625 107.261719 301.25 Z M 107.261719 301.25 " fill-opacity="1" fill-rule="nonzero"/></g><g clip-path="url(#449daadb16)"><path fill="#efb07d" d="M 275.414062 301.25 C 274.316406 310.515625 273.429688 311.40625 264.164062 312.5 C 264.183594 312.503906 264.203125 312.507812 264.21875 312.507812 L 264.222656 312.507812 C 273.429688 313.601562 274.320312 314.507812 275.414062 323.75 C 276.507812 314.488281 277.398438 313.597656 286.664062 312.5 C 277.398438 311.40625 276.507812 310.515625 275.414062 301.25 Z M 275.414062 301.25 " fill-opacity="1" fill-rule="nonzero"/></g><g clip-path="url(#9a6c02df26)"><path fill="#efb07d" d="M 218.664062 173.714844 L 187.566406 204.84375 L 156.472656 173.714844 C 148.027344 165.265625 148.027344 151.5625 156.472656 143.109375 L 156.78125 142.800781 C 165.226562 134.351562 178.917969 134.351562 187.359375 142.800781 L 187.570312 143.011719 L 187.78125 142.800781 C 196.21875 134.351562 209.910156 134.351562 218.351562 142.800781 L 218.664062 143.109375 C 227.109375 151.5625 227.109375 165.265625 218.664062 173.714844 Z M 187.589844 78.933594 C 138.140625 78.933594 98.109375 119.011719 98.109375 168.511719 C 98.109375 217.96875 187.589844 296.445312 187.589844 296.445312 C 187.589844 296.445312 277.027344 217.96875 277.027344 168.511719 C 277.027344 119.011719 236.996094 78.933594 187.589844 78.933594 " fill-opacity="1" fill-rule="nonzero"/></g></svg>