<svg xmlns="http://www.w3.org/2000/svg" xmlns:xlink="http://www.w3.org/1999/xlink" width="500" zoomAndPan="magnify" viewBox="0 0 375 374.999991" height="500" preserveAspectRatio="xMidYMid meet" version="1.0"><defs><clipPath id="298d9248a9"><path d="M 20.859375 249 L 353.859375 249 L 353.859375 375 L 20.859375 375 Z M 20.859375 249 " clip-rule="nonzero"/></clipPath></defs><path fill="#efb07d" d="M 207.214844 296.105469 L 167.4375 296.105469 C 153.65625 296.105469 142.445312 284.882812 142.445312 271.09375 L 142.445312 134.898438 C 142.445312 132.554688 144.34375 130.65625 146.683594 130.65625 C 149.027344 130.65625 150.921875 132.554688 150.921875 134.898438 L 150.921875 271.09375 C 150.921875 280.207031 158.332031 287.621094 167.4375 287.621094 L 207.214844 287.621094 C 216.320312 287.621094 223.730469 280.207031 223.730469 271.09375 L 223.730469 134.898438 C 223.730469 132.554688 225.625 130.65625 227.96875 130.65625 C 230.308594 130.65625 232.207031 132.554688 232.207031 134.898438 L 232.207031 271.09375 C 232.207031 284.882812 220.996094 296.105469 207.214844 296.105469 Z M 207.214844 296.105469 " fill-opacity="1" fill-rule="nonzero"/><path fill="#efb07d" d="M 240.933594 203.253906 L 227.96875 203.253906 C 225.625 203.253906 223.730469 201.355469 223.730469 199.011719 C 223.730469 196.667969 225.625 194.769531 227.96875 194.769531 L 240.933594 194.769531 C 246.707031 194.769531 251.402344 190.070312 251.402344 184.296875 L 251.402344 114.957031 C 251.402344 101.066406 240.109375 89.765625 226.230469 89.765625 L 148.421875 89.765625 C 134.542969 89.765625 123.25 101.066406 123.25 114.957031 L 123.25 184.296875 C 123.25 190.070312 127.945312 194.769531 133.714844 194.769531 L 146.683594 194.769531 C 149.023438 194.769531 150.921875 196.667969 150.921875 199.011719 C 150.921875 201.355469 149.023438 203.253906 146.683594 203.253906 L 133.714844 203.253906 C 123.273438 203.253906 114.773438 194.75 114.773438 184.296875 L 114.773438 114.957031 C 114.773438 96.390625 129.867188 81.285156 148.421875 81.285156 L 226.230469 81.285156 C 244.785156 81.285156 259.878906 96.390625 259.878906 114.957031 L 259.878906 184.296875 C 259.878906 194.746094 251.378906 203.253906 240.933594 203.253906 Z M 240.933594 203.253906 " fill-opacity="1" fill-rule="nonzero"/><path fill="#efb07d" d="M 187.324219 72.90625 C 167.25 72.90625 150.917969 56.5625 150.917969 36.472656 C 150.917969 16.378906 167.25 0.0351562 187.324219 0.0351562 C 207.398438 0.0351562 223.730469 16.378906 223.730469 36.472656 C 223.730469 56.5625 207.398438 72.90625 187.324219 72.90625 Z M 187.324219 8.519531 C 171.925781 8.519531 159.394531 21.058594 159.394531 36.472656 C 159.394531 51.882812 171.925781 64.421875 187.324219 64.421875 C 202.726562 64.421875 215.253906 51.882812 215.253906 36.472656 C 215.253906 21.058594 202.726562 8.519531 187.324219 8.519531 Z M 187.324219 8.519531 " fill-opacity="1" fill-rule="nonzero"/><path fill="#efb07d" d="M 187.324219 296.105469 C 184.984375 296.105469 183.085938 294.207031 183.085938 291.863281 L 183.085938 213.382812 C 183.085938 211.039062 184.984375 209.140625 187.324219 209.140625 C 189.664062 209.140625 191.5625 211.039062 191.5625 213.382812 L 191.5625 291.863281 C 191.5625 294.207031 189.664062 296.105469 187.324219 296.105469 Z M 187.324219 296.105469 " fill-opacity="1" fill-rule="nonzero"/><g clip-path="url(#298d9248a9)"><path fill="#efb07d" d="M 187.324219 375.035156 C 143.503906 375.035156 102.246094 368.757812 71.144531 357.367188 C 38.707031 345.480469 20.84375 329.140625 20.84375 311.351562 C 20.84375 296.136719 33.648438 282.121094 57.867188 270.824219 C 80.230469 260.390625 111.628906 252.84375 146.285156 249.570312 C 148.613281 249.34375 150.683594 251.0625 150.90625 253.394531 C 151.125 255.726562 149.414062 257.796875 147.082031 258.015625 C 78.847656 264.464844 29.320312 286.894531 29.320312 311.351562 C 29.320312 325.113281 45.628906 338.980469 74.058594 349.398438 C 104.25 360.457031 144.472656 366.550781 187.328125 366.550781 C 230.175781 366.550781 270.402344 360.457031 300.59375 349.398438 C 329.023438 338.980469 345.328125 325.113281 345.328125 311.351562 C 345.328125 286.894531 295.804688 264.464844 227.570312 258.015625 C 225.238281 257.796875 223.527344 255.726562 223.75 253.394531 C 223.96875 251.0625 226.027344 249.339844 228.367188 249.570312 C 263.023438 252.84375 294.421875 260.394531 316.785156 270.824219 C 341.003906 282.121094 353.808594 296.136719 353.808594 311.351562 C 353.808594 329.140625 335.945312 345.484375 303.507812 357.367188 C 272.40625 368.761719 231.148438 375.035156 187.324219 375.035156 Z M 187.324219 375.035156 " fill-opacity="1" fill-rule="nonzero"/></g><path fill="#efb07d" d="M 253.753906 369.839844 C 252.113281 369.839844 250.625 368.894531 249.921875 367.414062 C 246.960938 361.164062 241.949219 353.683594 237.097656 346.445312 C 228.6875 333.894531 221.425781 323.058594 221.425781 315.023438 C 221.425781 297.285156 235.84375 282.855469 253.566406 282.855469 C 271.289062 282.855469 285.707031 297.285156 285.707031 315.023438 C 285.707031 322.882812 278.621094 333.621094 270.414062 346.054688 C 265.558594 353.410156 260.539062 361.019531 257.601562 367.378906 C 256.910156 368.871094 255.417969 369.832031 253.773438 369.839844 C 253.765625 369.839844 253.757812 369.839844 253.753906 369.839844 Z M 253.566406 291.339844 C 240.515625 291.339844 229.902344 301.964844 229.902344 315.023438 C 229.902344 320.476562 237.464844 331.761719 244.140625 341.722656 C 247.460938 346.675781 250.859375 351.746094 253.710938 356.582031 C 256.570312 351.636719 259.992188 346.449219 263.339844 341.378906 C 269.851562 331.515625 277.230469 320.332031 277.230469 315.023438 C 277.230469 301.964844 266.613281 291.339844 253.566406 291.339844 Z M 253.566406 291.339844 " fill-opacity="1" fill-rule="nonzero"/><path fill="#efb07d" d="M 253.566406 331.824219 C 244.308594 331.824219 236.777344 324.289062 236.777344 315.023438 C 236.777344 305.757812 244.308594 298.222656 253.566406 298.222656 C 262.824219 298.222656 270.355469 305.757812 270.355469 315.023438 C 270.355469 324.289062 262.824219 331.824219 253.566406 331.824219 Z M 253.566406 306.707031 C 248.984375 306.707031 245.253906 310.4375 245.253906 315.023438 C 245.253906 319.609375 248.984375 323.339844 253.566406 323.339844 C 258.148438 323.339844 261.878906 319.609375 261.878906 315.023438 C 261.878906 310.4375 258.148438 306.707031 253.566406 306.707031 Z M 253.566406 306.707031 " fill-opacity="1" fill-rule="nonzero"/><path fill="#efb07d" d="M 307.214844 275.546875 C 305.578125 275.546875 304.085938 274.601562 303.382812 273.121094 C 300.425781 266.871094 295.410156 259.386719 290.558594 252.152344 C 282.148438 239.601562 274.886719 228.761719 274.886719 220.730469 C 274.886719 202.992188 289.304688 188.5625 307.027344 188.5625 C 324.75 188.5625 339.167969 202.992188 339.167969 220.730469 C 339.167969 228.589844 332.082031 239.328125 323.875 251.761719 C 319.019531 259.117188 314 266.726562 311.0625 273.085938 C 310.371094 274.578125 308.878906 275.539062 307.234375 275.546875 C 307.226562 275.546875 307.21875 275.546875 307.214844 275.546875 Z M 307.027344 197.042969 C 293.976562 197.042969 283.363281 207.667969 283.363281 220.730469 C 283.363281 226.179688 290.925781 237.46875 297.601562 247.425781 C 300.921875 252.382812 304.320312 257.449219 307.171875 262.289062 C 310.03125 257.339844 313.453125 252.15625 316.800781 247.085938 C 323.3125 237.21875 330.691406 226.039062 330.691406 220.730469 C 330.691406 207.671875 320.074219 197.042969 307.027344 197.042969 Z M 307.027344 197.042969 " fill-opacity="1" fill-rule="nonzero"/><path fill="#efb07d" d="M 307.027344 237.53125 C 297.769531 237.53125 290.238281 229.992188 290.238281 220.730469 C 290.238281 211.464844 297.769531 203.925781 307.027344 203.925781 C 316.285156 203.925781 323.816406 211.464844 323.816406 220.730469 C 323.816406 229.992188 316.285156 237.53125 307.027344 237.53125 Z M 307.027344 212.410156 C 302.445312 212.410156 298.714844 216.140625 298.714844 220.730469 C 298.714844 225.316406 302.445312 229.046875 307.027344 229.046875 C 311.609375 229.046875 315.339844 225.316406 315.339844 220.730469 C 315.339844 216.140625 311.609375 212.410156 307.027344 212.410156 Z M 307.027344 212.410156 " fill-opacity="1" fill-rule="nonzero"/><path fill="#efb07d" d="M 99.480469 365.578125 C 97.84375 365.578125 96.351562 364.632812 95.652344 363.152344 C 92.691406 356.902344 87.675781 349.417969 82.828125 342.183594 C 74.417969 329.632812 67.152344 318.796875 67.152344 310.761719 C 67.152344 293.023438 81.570312 278.589844 99.292969 278.589844 C 117.015625 278.589844 131.4375 293.023438 131.4375 310.761719 C 131.4375 318.621094 124.347656 329.359375 116.140625 341.792969 C 111.285156 349.148438 106.265625 356.757812 103.328125 363.117188 C 102.636719 364.609375 101.144531 365.570312 99.5 365.578125 C 99.496094 365.578125 99.488281 365.578125 99.480469 365.578125 Z M 99.292969 287.074219 C 86.246094 287.074219 75.628906 297.699219 75.628906 310.757812 C 75.628906 316.210938 83.191406 327.5 89.867188 337.457031 C 93.1875 342.414062 96.585938 347.480469 99.4375 352.320312 C 102.300781 347.371094 105.722656 342.1875 109.066406 337.117188 C 115.578125 327.25 122.957031 316.070312 122.957031 310.761719 C 122.957031 297.699219 112.34375 287.074219 99.292969 287.074219 Z M 99.292969 287.074219 " fill-opacity="1" fill-rule="nonzero"/><path fill="#efb07d" d="M 99.292969 327.5625 C 90.039062 327.5625 82.507812 320.023438 82.507812 310.757812 C 82.507812 301.496094 90.039062 293.957031 99.292969 293.957031 C 108.550781 293.957031 116.082031 301.496094 116.082031 310.757812 C 116.082031 320.023438 108.550781 327.5625 99.292969 327.5625 Z M 99.292969 302.441406 C 94.710938 302.441406 90.984375 306.171875 90.984375 310.761719 C 90.984375 315.347656 94.710938 319.078125 99.292969 319.078125 C 103.878906 319.078125 107.605469 315.347656 107.605469 310.761719 C 107.605469 306.171875 103.878906 302.441406 99.292969 302.441406 Z M 99.292969 302.441406 " fill-opacity="1" fill-rule="nonzero"/></svg>