<svg xmlns="http://www.w3.org/2000/svg" xmlns:xlink="http://www.w3.org/1999/xlink" width="500" zoomAndPan="magnify" viewBox="0 0 375 374.999991" height="500" preserveAspectRatio="xMidYMid meet" version="1.0"><defs><filter x="0%" y="0%" width="100%" height="100%" id="56d79de0ce"><feColorMatrix values="0 0 0 0 1 0 0 0 0 1 0 0 0 0 1 0 0 0 1 0" color-interpolation-filters="sRGB"/></filter><g/><clipPath id="f4b7ade2d1"><path d="M 0.0234375 0.046875 L 372.558594 0.046875 L 372.558594 372.582031 L 0.0234375 372.582031 Z M 0.0234375 0.046875 " clip-rule="nonzero"/></clipPath><clipPath id="80d0685c5b"><path d="M 186.292969 0.046875 C 83.417969 0.046875 0.0234375 83.441406 0.0234375 186.316406 C 0.0234375 289.1875 83.417969 372.582031 186.292969 372.582031 C 289.164062 372.582031 372.558594 289.1875 372.558594 186.316406 C 372.558594 83.441406 289.164062 0.046875 186.292969 0.046875 " clip-rule="nonzero"/></clipPath><clipPath id="d0799a3d31"><path d="M 98 100 L 296 100 L 296 274.582031 L 98 274.582031 Z M 98 100 " clip-rule="nonzero"/></clipPath><clipPath id="39872938e3"><path d="M 99 105 L 295 105 L 295 274.582031 L 99 274.582031 Z M 99 105 " clip-rule="nonzero"/></clipPath><mask id="8ff885a24d"><g filter="url(#56d79de0ce)"><rect x="-37.5" width="450" fill="#000000" y="-37.499999" height="449.999989" fill-opacity="0.298"/></g></mask><clipPath id="584c842d65"><path d="M 1 1 L 195.71875 1 L 195.71875 169.582031 L 1 169.582031 Z M 1 1 " clip-rule="nonzero"/></clipPath><clipPath id="9241b0acda"><rect x="0" width="196" y="0" height="170"/></clipPath><clipPath id="34a0ba5eaf"><path d="M 99 123 L 261 123 L 261 274.582031 L 99 274.582031 Z M 99 123 " clip-rule="nonzero"/></clipPath><clipPath id="6e787787bb"><path d="M 96 98.332031 L 297.300781 98.332031 L 297.300781 274.582031 L 96 274.582031 Z M 96 98.332031 " clip-rule="nonzero"/></clipPath><clipPath id="8804f287fb"><path d="M 35.542969 153.054688 L 42.292969 153.054688 L 42.292969 159.804688 L 35.542969 159.804688 Z M 35.542969 153.054688 " clip-rule="nonzero"/></clipPath><clipPath id="e9574fc7f8"><path d="M 330.527344 153.054688 L 337.277344 153.054688 L 337.277344 159.804688 L 330.527344 159.804688 Z M 330.527344 153.054688 " clip-rule="nonzero"/></clipPath><clipPath id="efa3541499"><path d="M 95.40625 299.320312 L 117.90625 299.320312 L 117.90625 321.820312 L 95.40625 321.820312 Z M 95.40625 299.320312 " clip-rule="nonzero"/></clipPath><clipPath id="51d1d552c3"><path d="M 262.453125 299.320312 L 284.953125 299.320312 L 284.953125 321.820312 L 262.453125 321.820312 Z M 262.453125 299.320312 " clip-rule="nonzero"/></clipPath></defs><g clip-path="url(#f4b7ade2d1)"><g clip-path="url(#80d0685c5b)"><path fill="#0d6e72" d="M 0.0234375 0.046875 L 372.558594 0.046875 L 372.558594 372.582031 L 0.0234375 372.582031 Z M 0.0234375 0.046875 " fill-opacity="1" fill-rule="nonzero"/></g></g><g clip-path="url(#d0799a3d31)"><path fill="#ffffff" d="M 295.335938 260.820312 L 294.628906 274.558594 L 244.679688 274.558594 L 245.566406 260.820312 Z M 283.867188 200.605469 C 283.867188 200.605469 285.140625 178.167969 266.296875 154.925781 C 270.617188 133.449219 264.824219 104.675781 259.328125 100.441406 C 248.945312 101.050781 227.261719 108.65625 215.21875 127.800781 C 203.027344 123.453125 185.816406 122.304688 168.460938 126.640625 C 168.460938 126.640625 147.914062 105.03125 123.824219 100.441406 C 112.132812 108.980469 115.796875 150.582031 115.675781 155.8125 C 107.53125 170.355469 76.710938 214.804688 127.367188 245.972656 C 120.636719 263.304688 117.957031 274.320312 117.957031 274.320312 L 242.851562 274.5625 C 242.851562 274.5625 245.160156 250.1875 247.640625 238.125 C 250.117188 226.066406 252.425781 205.835938 257.726562 203.46875 C 263.03125 201.097656 267.175781 206.71875 267.175781 206.71875 C 267.175781 206.71875 273.167969 191.996094 277.847656 205.125 C 276.503906 200.15625 283.867188 200.605469 283.867188 200.605469 Z M 283.867188 200.605469 " fill-opacity="1" fill-rule="nonzero"/></g><path fill="#efb07d" d="M 250.878906 219.3125 C 254.777344 199.625 262.746094 201.574219 267.175781 206.71875 C 267.882812 200.6875 274.257812 198.738281 277.980469 203.527344 C 292.324219 189.335938 294.628906 231.4375 294.628906 231.4375 L 294.628906 258.695312 C 294.628906 258.695312 291.414062 269.160156 269.390625 269.160156 C 250.171875 269.160156 244.679688 260.644531 244.679688 260.644531 C 244.679688 260.644531 246.984375 239.003906 250.878906 219.3125 Z M 169.078125 126.894531 C 164.828125 120.527344 137.464844 98.332031 124.179688 100.464844 C 109.125 117.851562 116.386719 155.8125 116.386719 155.8125 C 116.386719 155.8125 103.953125 172.464844 102.472656 188.558594 C 102.949219 200.421875 135.167969 221.210938 172 190.332031 C 207.003906 160.992188 178.820312 125.121094 178.820312 125.121094 C 178.820312 125.121094 174.039062 125.460938 169.078125 126.894531 Z M 256.320312 110.753906 L 244.679688 134.40625 C 244.679688 134.40625 255.082031 143.039062 257.824219 150.488281 C 260.5625 143.394531 261.292969 125.300781 256.320312 110.753906 Z M 256.320312 110.753906 " fill-opacity="1" fill-rule="nonzero"/><g clip-path="url(#39872938e3)"><g mask="url(#8ff885a24d)"><g transform="matrix(1, 0, 0, 1, 99, 105)"><g clip-path="url(#9241b0acda)"><g clip-path="url(#584c842d65)"><path fill="#ef5454" d="M 195.628906 169.558594 C 195.628906 169.558594 195.628906 169.558594 174.109375 169.558594 C 190.847656 168.042969 192.886719 122.832031 192.886719 122.832031 Z M 37.695312 29.40625 C 37.695312 29.40625 28.484375 10.246094 26.949219 5.753906 C 23.054688 15.214844 22.410156 38.867188 25.449219 45.488281 C 31.421875 38.199219 37.695312 29.40625 37.695312 29.40625 Z M 143.945312 169.558594 C 145.917969 157.199219 148.621094 140.1875 150.800781 126.472656 C 150.789062 126.476562 150.777344 126.480469 150.769531 126.484375 L 152.996094 101.867188 C 152.855469 102.039062 152.675781 102.277344 152.453125 102.59375 C 150.765625 105.035156 146.945312 112.074219 143.859375 128.800781 C 131.210938 132.570312 114.554688 135.167969 92.628906 135.316406 C 7.605469 134.730469 1.8125 97.390625 1.8125 97.390625 C 1.8125 97.390625 0.277344 102.425781 3.542969 110.652344 C 2.589844 109.847656 1.867188 109.207031 1.46875 108.816406 C 3.972656 127.675781 28.484375 142.222656 28.484375 142.222656 L 18.957031 169.5625 C 18.957031 169.5625 28.957031 169.5625 39.820312 169.5625 C 46.433594 147.945312 54.425781 148.511719 54.425781 148.511719 C 71.066406 152.160156 87.050781 153.144531 92.628906 153.144531 C 98.203125 153.144531 114.1875 152.160156 130.832031 148.511719 C 130.832031 148.511719 134.917969 148.222656 139.664062 155.960938 C 137.941406 166.976562 137.386719 169.550781 137.386719 169.550781 Z M 115.765625 22.800781 L 125.570312 25.621094 C 125.570312 25.621094 129.226562 12.429688 145.226562 1.285156 C 134.070312 4.335938 122.023438 12.410156 115.765625 22.800781 Z M 39.25 1.285156 C 55.25 12.429688 58.910156 25.621094 58.910156 25.621094 L 68.710938 22.800781 C 62.453125 12.410156 50.410156 4.335938 39.25 1.285156 Z M 99.097656 105.214844 C 99.097656 105.214844 91.066406 107.0625 84.21875 105.011719 C 85.164062 112.894531 96.734375 113.605469 99.097656 105.214844 Z M 99.097656 105.214844 " fill-opacity="1" fill-rule="nonzero"/></g></g></g></g></g><g clip-path="url(#34a0ba5eaf)"><path fill="#ffffff" d="M 117.613281 123.421875 C 117.613281 123.421875 115.820312 148.132812 124.25 159.953125 C 115.324219 166.453125 100.019531 187.570312 100.453125 204.769531 C 97.082031 193.59375 101.914062 174.492188 115.261719 157.40625 C 113.90625 147.296875 115.261719 133.386719 117.613281 123.421875 Z M 247.984375 251.195312 C 252.765625 215.671875 260.933594 204.800781 260.933594 204.800781 C 247.492188 201.164062 246.746094 235.398438 247.984375 251.195312 Z M 110.035156 227.832031 C 110.035156 227.832031 126.480469 242.90625 136.578125 244.503906 C 132.503906 249.648438 124.25 274.5625 124.25 274.5625 L 116.917969 274.5625 L 126.480469 246.632812 C 126.480469 246.632812 110.414062 238.664062 110.035156 227.832031 Z M 110.035156 227.832031 " fill-opacity="1" fill-rule="nonzero"/></g><g clip-path="url(#6e787787bb)"><path fill="#00004a" d="M 297.285156 274.558594 C 295.027344 274.558594 292.058594 274.558594 292.058594 274.558594 C 292.015625 265.921875 293.535156 221.269531 289.011719 206.226562 C 286.617188 198.261719 279.152344 202.070312 278.136719 208.695312 C 277.460938 205.371094 276.691406 201.792969 273.296875 202.144531 C 269.101562 202.582031 267.386719 210.007812 267.386719 210.007812 C 267.386719 210.007812 264.015625 204.597656 260.933594 204.800781 C 256.070312 205.117188 252.863281 212.277344 250.53125 227.523438 C 249.21875 236.09375 245.84375 274.558594 245.84375 274.558594 L 241.496094 274.558594 C 241.496094 274.558594 243.886719 248.046875 244.652344 242.300781 L 244.675781 242.136719 L 245.292969 237.660156 C 246.691406 227.816406 248.25 218.890625 249.753906 213.242188 C 253.660156 198.546875 262.53125 196.996094 266.53125 204.054688 C 268.585938 196.488281 277.492188 195.226562 278.429688 201.886719 C 278.722656 200.492188 280.109375 198.820312 282.058594 198.125 C 281.285156 186.769531 276.320312 173.082031 264.367188 156.699219 C 266.980469 151.199219 269.769531 125.324219 258.792969 102.59375 C 253.242188 102.59375 234.644531 107.144531 216.699219 126.6875 C 219.746094 127.746094 222.613281 129.039062 225.019531 130.621094 C 224.273438 130.652344 207.878906 125.988281 191.484375 125.988281 C 175.09375 125.988281 158.699219 130.652344 157.949219 130.621094 C 160.359375 129.039062 163.222656 127.746094 166.273438 126.6875 C 148.324219 107.144531 129.730469 102.59375 124.179688 102.59375 C 113.203125 125.324219 115.992188 151.199219 118.605469 156.699219 C 75.292969 216.042969 123.742188 240.085938 130.644531 245.476562 C 126.746094 253.460938 119.574219 274.558594 119.574219 274.558594 L 114.761719 274.558594 C 114.761719 274.558594 119.417969 259.855469 125.085938 246.730469 C 81.847656 221.269531 95.839844 179.578125 113.550781 157.40625 C 108.238281 126.011719 119.21875 99.046875 123.46875 98.332031 C 151.636719 103.726562 166.03125 120.535156 169.796875 125.585938 C 174.855469 124.164062 183.167969 122.089844 191.484375 122.089844 C 199.792969 122.089844 208.101562 124.160156 213.171875 125.585938 C 216.941406 120.535156 231.332031 103.726562 259.5 98.332031 C 263.75 99.046875 274.734375 126.011719 269.417969 157.40625 C 277.824219 167.929688 285.382812 182.847656 286.394531 198.335938 C 287.851562 198.980469 289.390625 200.246094 290.898438 202.40625 C 293.714844 206.4375 294.144531 211.636719 295.46875 222.109375 C 296.695312 231.78125 297.285156 268.847656 297.285156 274.558594 Z M 256.320312 110.753906 C 256.320312 110.753906 248.246094 122.207031 242.308594 134.394531 C 246.289062 137.007812 254.476562 145.523438 257.824219 150.488281 C 259.398438 147.652344 251.21875 135.617188 247.050781 133.28125 C 251.386719 128.671875 256.320312 110.753906 256.320312 110.753906 Z M 125.949219 110.753906 C 125.949219 110.753906 134.023438 122.207031 139.960938 134.394531 C 135.980469 137.007812 127.792969 145.523438 124.449219 150.488281 C 122.875 147.652344 131.054688 135.617188 135.21875 133.28125 C 130.882812 128.671875 125.949219 110.753906 125.949219 110.753906 Z M 148.484375 168.082031 C 139.464844 170.210938 133.355469 179.222656 131.496094 186.695312 C 131.210938 187.835938 131.820312 188.738281 133.085938 189.054688 C 135.132812 189.566406 138.855469 188.523438 139.402344 186.324219 C 140.117188 183.453125 141.335938 180.847656 143.019531 178.582031 C 144.289062 176.875 146.769531 173.917969 149.109375 173.335938 C 150.988281 172.863281 152.785156 175.941406 153.75 177.59375 L 153.976562 177.984375 C 155.628906 180.777344 156.96875 184.019531 157.949219 187.613281 C 158.292969 188.875 159.527344 189.371094 160.894531 189.371094 C 161.46875 189.371094 162.0625 189.285156 162.625 189.128906 C 164.917969 188.5 166.230469 187.007812 165.816406 185.496094 C 162.207031 172.277344 156.214844 166.253906 148.484375 168.082031 Z M 250.765625 185.496094 C 247.15625 172.277344 241.164062 166.253906 233.433594 168.082031 C 224.417969 170.210938 218.308594 179.222656 216.445312 186.695312 C 216.273438 187.386719 216.433594 188.015625 216.898438 188.464844 C 217.871094 189.40625 219.816406 189.28125 221.1875 188.890625 C 222.890625 188.398438 224.074219 187.441406 224.351562 186.324219 C 225.070312 183.453125 226.285156 180.847656 227.96875 178.582031 C 229.242188 176.875 231.71875 173.917969 234.058594 173.335938 C 235.9375 172.867188 237.734375 175.941406 238.699219 177.597656 L 238.925781 177.984375 C 240.582031 180.777344 241.917969 184.015625 242.898438 187.613281 C 243.117188 188.414062 243.753906 188.988281 244.691406 189.234375 C 245.046875 189.328125 245.441406 189.375 245.847656 189.375 C 247.367188 189.375 249.101562 188.753906 250.0625 187.78125 C 250.734375 187.101562 250.984375 186.289062 250.765625 185.496094 Z M 204.207031 189.472656 C 203.25 189.984375 202.792969 191.625 203.730469 193.386719 C 204.273438 194.410156 203.695312 195.464844 203.300781 196.003906 C 202.269531 197.410156 200.414062 198.269531 198.988281 198.003906 C 196.535156 197.542969 195.058594 194.652344 194.046875 192.1875 C 193.574219 191.035156 192.578125 190.320312 191.453125 190.320312 C 190.328125 190.320312 189.335938 191.035156 188.863281 192.1875 C 188.03125 194.210938 186.480469 197.976562 183.917969 198.457031 C 182.828125 198.660156 181.46875 198.132812 180.386719 197.089844 C 178.78125 195.472656 179.261719 193.363281 179.4375 192.789062 C 179.453125 192.746094 179.464844 192.703125 179.484375 192.640625 L 179.859375 191.644531 L 179.671875 191.644531 C 179.722656 190.601562 179.304688 189.710938 178.558594 189.410156 C 177.921875 189.152344 176.980469 189.351562 176.269531 190.6875 C 174.945312 193.175781 174.875 196.136719 176.074219 198.605469 C 177.1875 200.898438 179.289062 202.476562 181.832031 202.925781 C 185.480469 203.578125 188.792969 202.03125 191.453125 198.457031 C 193.714844 201.5 196.453125 203.070312 199.46875 203.070312 C 199.996094 203.070312 200.53125 203.023438 201.074219 202.925781 C 203.617188 202.476562 205.71875 200.898438 206.832031 198.605469 C 208.035156 196.136719 207.960938 193.175781 206.636719 190.6875 C 205.867188 189.242188 204.847656 189.132812 204.207031 189.472656 Z M 204.207031 189.472656 " fill-opacity="1" fill-rule="nonzero"/></g><path fill="#ef5454" d="M 272.429688 225.226562 C 271.105469 223.734375 265.808594 219.691406 262.402344 226.289062 C 258.996094 232.886719 268.289062 239.488281 272.429688 239.488281 C 276.570312 239.488281 285.859375 232.886719 282.457031 226.289062 C 279.050781 219.691406 273.753906 223.734375 272.429688 225.226562 Z M 275.679688 214.109375 C 275.679688 212.097656 274.527344 210.464844 273.109375 210.464844 C 271.6875 210.464844 270.539062 212.097656 270.539062 214.109375 C 270.539062 216.125 271.6875 217.757812 273.109375 217.757812 C 274.527344 217.757812 275.679688 216.125 275.679688 214.109375 Z M 283.644531 212.65625 C 282.207031 212.4375 280.765625 213.78125 280.425781 215.65625 C 280.089844 217.53125 280.984375 219.230469 282.421875 219.449219 C 283.863281 219.667969 285.304688 218.324219 285.640625 216.449219 C 285.980469 214.574219 285.085938 212.875 283.644531 212.65625 Z M 262.875 219.628906 C 264.332031 219.207031 264.976562 217.347656 264.320312 215.472656 C 263.660156 213.601562 261.945312 212.425781 260.492188 212.847656 C 259.035156 213.269531 258.390625 215.128906 259.046875 217.003906 C 259.707031 218.875 261.421875 220.050781 262.875 219.628906 Z M 262.875 219.628906 " fill-opacity="1" fill-rule="nonzero"/><g clip-path="url(#8804f287fb)"><path fill="#efb07d" d="M 42.292969 156.429688 C 42.292969 156.878906 42.207031 157.308594 42.035156 157.722656 C 41.863281 158.136719 41.621094 158.5 41.304688 158.816406 C 40.988281 159.132812 40.621094 159.375 40.210938 159.546875 C 39.796875 159.71875 39.367188 159.804688 38.917969 159.804688 C 38.46875 159.804688 38.039062 159.71875 37.625 159.546875 C 37.210938 159.375 36.847656 159.132812 36.53125 158.816406 C 36.214844 158.5 35.972656 158.136719 35.800781 157.722656 C 35.628906 157.308594 35.542969 156.878906 35.542969 156.429688 C 35.542969 155.984375 35.628906 155.550781 35.800781 155.136719 C 35.972656 154.726562 36.214844 154.359375 36.53125 154.042969 C 36.847656 153.726562 37.210938 153.484375 37.625 153.3125 C 38.039062 153.140625 38.46875 153.054688 38.917969 153.054688 C 39.367188 153.054688 39.796875 153.140625 40.210938 153.3125 C 40.621094 153.484375 40.988281 153.726562 41.304688 154.042969 C 41.621094 154.359375 41.863281 154.726562 42.035156 155.136719 C 42.207031 155.550781 42.292969 155.984375 42.292969 156.429688 Z M 42.292969 156.429688 " fill-opacity="1" fill-rule="nonzero"/></g><g clip-path="url(#e9574fc7f8)"><path fill="#efb07d" d="M 337.277344 156.429688 C 337.277344 156.878906 337.191406 157.308594 337.019531 157.722656 C 336.847656 158.136719 336.601562 158.5 336.285156 158.816406 C 335.96875 159.132812 335.605469 159.375 335.191406 159.546875 C 334.777344 159.71875 334.347656 159.804688 333.902344 159.804688 C 333.453125 159.804688 333.023438 159.71875 332.609375 159.546875 C 332.195312 159.375 331.832031 159.132812 331.515625 158.816406 C 331.199219 158.5 330.953125 158.136719 330.78125 157.722656 C 330.609375 157.308594 330.527344 156.878906 330.527344 156.429688 C 330.527344 155.984375 330.609375 155.550781 330.78125 155.136719 C 330.953125 154.726562 331.199219 154.359375 331.515625 154.042969 C 331.832031 153.726562 332.195312 153.484375 332.609375 153.3125 C 333.023438 153.140625 333.453125 153.054688 333.902344 153.054688 C 334.347656 153.054688 334.777344 153.140625 335.191406 153.3125 C 335.605469 153.484375 335.96875 153.726562 336.285156 154.042969 C 336.601562 154.359375 336.847656 154.726562 337.019531 155.136719 C 337.191406 155.550781 337.277344 155.984375 337.277344 156.429688 Z M 337.277344 156.429688 " fill-opacity="1" fill-rule="nonzero"/></g><g fill="#ffffff" fill-opacity="1"><g transform="translate(53.985769, 145.735519)"><g><path d="M 3.09375 -7.667969 C 4.496094 -11.515625 2.210938 -15.046875 -3.289062 -17.046875 C -3.828125 -17.242188 -4.851562 -17.179688 -5.355469 -15.796875 C -5.707031 -14.835938 -6.003906 -13.898438 -4.503906 -13.351562 C -1.503906 -12.261719 0.15625 -10.480469 -0.402344 -8.941406 C -1.035156 -7.210938 -5.835938 -7.652344 -12.335938 -10.019531 C -18.179688 -12.144531 -21.636719 -14.96875 -20.882812 -17.046875 C -20.40625 -18.355469 -17.507812 -18.300781 -13.699219 -16.917969 C -12.796875 -16.761719 -11.992188 -16.949219 -11.515625 -18.253906 C -11.039062 -19.5625 -11.417969 -20.441406 -12.570312 -20.859375 C -18.339844 -22.957031 -23.078125 -21.894531 -24.410156 -18.242188 C -25.960938 -13.976562 -21.535156 -9.144531 -13.347656 -6.164062 C -4.539062 -2.957031 1.585938 -3.515625 3.09375 -7.667969 Z M 3.09375 -7.667969 "/></g></g></g><g fill="#ffffff" fill-opacity="1"><g transform="translate(61.566431, 125.996965)"><g><path d="M 1.441406 -1.773438 C 2.171875 -3.101562 2.289062 -3.738281 1.320312 -4.691406 C 0.648438 -5.339844 0.171875 -5.742188 -0.230469 -6.199219 C -0.8125 -6.84375 -1.144531 -7.683594 -0.414062 -9.007812 C 0.316406 -10.335938 1.199219 -10.5 2.054688 -10.359375 C 2.65625 -10.261719 3.253906 -10.074219 4.160156 -9.855469 C 5.484375 -9.546875 5.960938 -9.984375 6.691406 -11.3125 C 7.242188 -12.316406 6.957031 -12.984375 6.3125 -13.339844 C 6.097656 -13.457031 5.863281 -13.542969 5.570312 -13.609375 C 4.191406 -13.898438 -11.144531 -18.878906 -15.136719 -20.28125 C -16.109375 -20.632812 -18.132812 -21.371094 -19.101562 -21.902344 C -20.070312 -22.4375 -21.074219 -22.054688 -21.78125 -20.761719 C -22.492188 -19.472656 -22.277344 -18.421875 -21.308594 -17.886719 C -20.339844 -17.355469 -18.636719 -16.042969 -17.816406 -15.40625 C -14.496094 -12.785156 -2.082031 -2.5 -1.09375 -1.488281 C -0.882812 -1.28125 -0.6875 -1.125 -0.472656 -1.007812 C 0.171875 -0.652344 0.890625 -0.769531 1.441406 -1.773438 Z M -3.390625 -10.644531 C -3.765625 -9.964844 -4.210938 -9.324219 -5.085938 -9.941406 C -6.117188 -10.699219 -12.890625 -15.449219 -12.710938 -15.773438 C -12.535156 -16.097656 -4.894531 -12.921875 -3.703125 -12.453125 C -2.714844 -12.046875 -2.996094 -11.363281 -3.390625 -10.644531 Z M -3.390625 -10.644531 "/></g></g></g><g fill="#ffffff" fill-opacity="1"><g transform="translate(71.777689, 108.134176)"><g><path d="M 5.46875 -6.425781 C 6.292969 -7.496094 5.960938 -8.269531 4.632812 -9.292969 L -6.171875 -17.464844 C -7.109375 -18.1875 -10.988281 -21.335938 -12.222656 -22.285156 C -12.964844 -22.859375 -13.171875 -23.328125 -12.652344 -24.269531 C -12.277344 -24.960938 -11.910156 -25.300781 -11.289062 -26.578125 C -10.667969 -27.851562 -11.339844 -28.992188 -11.859375 -29.390625 C -12.375 -29.789062 -13.390625 -29.746094 -14.015625 -28.9375 C -16.089844 -26.246094 -18.871094 -22.707031 -21.59375 -19.171875 C -22.066406 -18.558594 -21.984375 -17.460938 -21.171875 -16.835938 C -20.363281 -16.210938 -19.765625 -15.441406 -18.269531 -17.386719 C -16.769531 -19.332031 -16.171875 -20.109375 -14.386719 -18.734375 L -13.8125 -18.34375 C -10.800781 -16.28125 -8.089844 -14.035156 -5.53125 -12.0625 C -3.84375 -10.765625 -1.890625 -9.207031 0.0273438 -7.675781 C 0.84375 -6.996094 2.304688 -5.871094 2.304688 -5.871094 C 3.761719 -4.746094 4.644531 -5.355469 5.46875 -6.425781 Z M 5.46875 -6.425781 "/></g></g></g><g fill="#ffffff" fill-opacity="1"><g transform="translate(84.904061, 91.688323)"><g><path d="M 6.398438 -5.503906 C 7.378906 -6.433594 7.167969 -7.25 6.015625 -8.464844 L -3.394531 -18.210938 C -4.210938 -19.070312 -7.558594 -22.777344 -8.625 -23.90625 C -9.273438 -24.589844 -9.40625 -25.085938 -8.746094 -25.933594 C -8.265625 -26.558594 -7.855469 -26.835938 -7.042969 -28.003906 C -6.230469 -29.167969 -6.71875 -30.398438 -7.167969 -30.871094 C -7.617188 -31.347656 -8.628906 -31.460938 -9.371094 -30.757812 C -11.835938 -28.417969 -15.128906 -25.351562 -18.367188 -22.285156 C -18.929688 -21.75 -19.015625 -20.652344 -18.3125 -19.910156 C -17.609375 -19.167969 -17.140625 -18.3125 -15.359375 -20.003906 C -13.578125 -21.691406 -12.863281 -22.367188 -11.316406 -20.734375 L -10.808594 -20.257812 C -8.152344 -17.757812 -5.820312 -15.117188 -3.597656 -12.773438 C -2.132812 -11.230469 -0.445312 -9.390625 1.214844 -7.582031 C 1.917969 -6.78125 3.183594 -5.445312 3.183594 -5.445312 C 4.449219 -4.109375 5.417969 -4.574219 6.398438 -5.503906 Z M 6.398438 -5.503906 "/></g></g></g><g fill="#ffffff" fill-opacity="1"><g transform="translate(100.343147, 77.4793)"><g><path d="M 7.496094 -4.769531 C 11.144531 -7.261719 10.675781 -13.683594 5.390625 -21.421875 C 2.945312 -25.003906 0.273438 -27.539062 -2.238281 -28.894531 C -4.808594 -30.261719 -7.226562 -30.394531 -9.121094 -29.101562 C -12.871094 -26.539062 -12.164062 -19.988281 -7.246094 -12.789062 C -1.964844 -5.050781 3.84375 -2.277344 7.496094 -4.769531 Z M 5.394531 -7.847656 C 3.570312 -6.601562 -0.277344 -9.621094 -4.175781 -15.332031 C -7.683594 -20.46875 -8.84375 -24.78125 -7.019531 -26.027344 C -6.277344 -26.535156 -5.21875 -26.363281 -3.996094 -25.664062 C -2.238281 -24.683594 -0.148438 -22.492188 1.90625 -19.484375 C 5.804688 -13.773438 7.21875 -9.09375 5.394531 -7.847656 Z M 5.394531 -7.847656 "/></g></g></g><g fill="#ffffff" fill-opacity="1"><g transform="translate(119.375255, 65.236024)"><g/></g></g><g fill="#ffffff" fill-opacity="1"><g transform="translate(131.895005, 59.05527)"><g><path d="M 7.902344 -2.433594 C 11.769531 -3.773438 13.070312 -7.773438 11.15625 -13.304688 C 10.96875 -13.84375 10.273438 -14.601562 8.878906 -14.117188 C 7.914062 -13.785156 7 -13.421875 7.523438 -11.914062 C 8.566406 -8.898438 8.230469 -6.488281 6.683594 -5.953125 C 4.945312 -5.351562 2.257812 -9.355469 -0.00390625 -15.890625 C -2.039062 -21.769531 -2.027344 -26.234375 0.0585938 -26.957031 C 1.375 -27.410156 3.160156 -25.128906 4.488281 -21.300781 C 4.9375 -20.503906 5.589844 -19.992188 6.902344 -20.449219 C 8.21875 -20.90625 8.660156 -21.75 8.261719 -22.910156 C 6.25 -28.710938 2.4375 -31.71875 -1.234375 -30.449219 C -5.527344 -28.960938 -6.488281 -22.480469 -3.632812 -14.242188 C -0.566406 -5.390625 3.726562 -0.988281 7.902344 -2.433594 Z M 7.902344 -2.433594 "/></g></g></g><g fill="#ffffff" fill-opacity="1"><g transform="translate(151.992654, 52.492294)"><g><path d="M 2.289062 0 C 3.777344 -0.269531 4.34375 -0.582031 4.472656 -1.933594 C 4.554688 -2.863281 4.566406 -3.488281 4.664062 -4.089844 C 4.800781 -4.945312 5.238281 -5.734375 6.730469 -6.003906 C 8.21875 -6.273438 8.90625 -5.691406 9.335938 -4.9375 C 9.636719 -4.410156 9.867188 -3.828125 10.269531 -2.984375 C 10.867188 -1.761719 11.507812 -1.671875 12.996094 -1.941406 C 14.125 -2.148438 14.464844 -2.789062 14.332031 -3.515625 C 14.289062 -3.757812 14.207031 -3.992188 14.074219 -4.257812 C 13.429688 -5.515625 7.625 -20.554688 6.195312 -24.539062 C 5.851562 -25.515625 5.148438 -27.550781 4.953125 -28.636719 C 4.753906 -29.722656 3.824219 -30.261719 2.375 -30 C 0.925781 -29.738281 0.246094 -28.90625 0.441406 -27.820312 C 0.640625 -26.730469 0.699219 -24.578125 0.71875 -23.542969 C 0.78125 -19.3125 0.628906 -3.191406 0.464844 -1.789062 C 0.4375 -1.492188 0.441406 -1.246094 0.484375 -1.003906 C 0.613281 -0.277344 1.160156 0.207031 2.289062 0 Z M 6.121094 -9.34375 C 5.359375 -9.207031 4.578125 -9.148438 4.507812 -10.214844 C 4.445312 -11.492188 3.863281 -19.746094 4.222656 -19.8125 C 4.585938 -19.878906 6.941406 -11.945312 7.328125 -10.726562 C 7.636719 -9.703125 6.929688 -9.492188 6.121094 -9.34375 Z M 6.121094 -9.34375 "/></g></g></g><g fill="#ffffff" fill-opacity="1"><g transform="translate(172.380953, 49.193067)"><g><path d="M 12.691406 0.0507812 C 13.46875 0.0273438 14.648438 -0.296875 14.617188 -1.277344 C 14.585938 -2.21875 13.921875 -2.484375 11.945312 -5.453125 C 10.914062 -6.976562 10.074219 -8.996094 9.605469 -10.824219 C 10.128906 -11.128906 10.6875 -11.59375 11.324219 -12.1875 C 12.15625 -13.035156 13.035156 -15.027344 12.9375 -18.132812 C 12.835938 -21.367188 11.019531 -29.699219 5.292969 -29.519531 C 2.183594 -29.421875 0.324219 -28.667969 0.40625 -26.089844 C 0.453125 -24.660156 0.664062 -23.070312 0.707031 -21.761719 C 0.863281 -18.121094 1 -15.015625 1.101562 -11.785156 C 1.167969 -9.65625 1.199219 -7.449219 1.234375 -4.992188 C 1.226562 -3.929688 1.285156 -2.085938 1.285156 -2.085938 C 1.328125 -0.695312 1.851562 0.308594 3.445312 0.261719 C 5.449219 0.195312 5.542969 -0.828125 5.496094 -2.21875 C 5.496094 -2.21875 5.441406 -4.0625 5.367188 -5.121094 C 5.300781 -5.859375 5.28125 -6.472656 5.265625 -6.960938 C 5.234375 -8.023438 5.253906 -8.679688 5.363281 -9.09375 C 5.398438 -9.257812 5.519531 -9.34375 5.640625 -9.347656 C 5.804688 -9.351562 6.015625 -9.195312 6.0625 -8.953125 C 6.621094 -6.882812 8.175781 -4.269531 9.25 -2.625 C 10.199219 -1.140625 10.960938 -0.34375 12.035156 -0.0117188 C 12.160156 0.0273438 12.40625 0.0585938 12.691406 0.0507812 Z M 6.746094 -14.582031 C 5.476562 -14.542969 4.960938 -15.304688 4.929688 -16.40625 L 4.722656 -22.871094 C 4.621094 -24.871094 4.632812 -25.816406 5.613281 -25.847656 C 7.125 -25.894531 8.730469 -23.039062 8.847656 -19.355469 C 8.9375 -16.535156 8.09375 -14.625 6.746094 -14.582031 Z M 6.746094 -14.582031 "/></g></g></g><g fill="#ffffff" fill-opacity="1"><g transform="translate(191.908206, 48.948115)"><g><path d="M 3.65625 0.8125 C 4.105469 0.863281 5.605469 0.699219 7.238281 0.796875 C 9.734375 0.945312 12.546875 1.214844 12.675781 0.0351562 C 12.917969 -2.164062 10.128906 -2.632812 8.378906 -2.824219 C 6.589844 -3.023438 5.597656 -3.007812 5.753906 -4.429688 L 6.230469 -8.742188 C 6.300781 -9.394531 6.847656 -9.867188 7.417969 -9.804688 C 8.269531 -9.710938 11.757812 -9.246094 11.929688 -10.792969 C 12.121094 -12.542969 9.757812 -13.128906 8.171875 -13.304688 C 7.398438 -13.390625 6.976562 -13.683594 7.105469 -14.863281 C 7.238281 -16.042969 7.71875 -21.175781 7.886719 -22.722656 C 8.101562 -24.671875 9.644531 -24.09375 11.554688 -23.882812 C 13.265625 -23.695312 15.257812 -23.847656 15.472656 -25.800781 C 15.542969 -26.449219 14.976562 -27.292969 13.960938 -27.40625 C 12.941406 -27.515625 7.230469 -28.351562 5.925781 -28.453125 C 4.617188 -28.554688 4.222656 -27.199219 4.066406 -25.777344 C 3.910156 -24.351562 3.898438 -22.746094 3.753906 -21.445312 C 3.398438 -17.820312 3.097656 -14.726562 2.746094 -11.511719 C 2.515625 -9.398438 2.199219 -6.921875 1.890625 -4.484375 C 1.734375 -3.433594 1.535156 -1.601562 1.535156 -1.601562 C 1.332031 0.230469 2.640625 0.703125 3.65625 0.8125 Z M 3.65625 0.8125 "/></g></g></g><g fill="#ffffff" fill-opacity="1"><g transform="translate(210.639802, 51.464087)"><g/></g></g><g fill="#ffffff" fill-opacity="1"><g transform="translate(224.593486, 55.07695)"><g><path d="M 3.132812 1.460938 C 5.027344 2.113281 5.476562 1.183594 5.925781 -0.132812 C 5.925781 -0.132812 6.523438 -1.875 6.832031 -2.894531 C 7.242188 -4.222656 7.667969 -5.460938 8.039062 -6.675781 L 9.640625 -11.230469 L 12.265625 -18.765625 C 12.785156 -20.273438 13.589844 -22.117188 14.117188 -23.667969 C 14.464844 -24.675781 14.5625 -25.59375 12.511719 -26.292969 C 10.613281 -26.945312 10.164062 -25.886719 9.742188 -24.648438 C 9.25 -23.214844 8.820312 -21.460938 8.355469 -20.105469 C 7.214844 -16.644531 6.246094 -13.691406 5.199219 -10.632812 C 4.507812 -8.621094 3.753906 -6.542969 2.921875 -4.234375 C 2.539062 -3.238281 1.941406 -1.496094 1.941406 -1.496094 C 1.488281 -0.183594 1.621094 0.945312 3.132812 1.460938 Z M 3.132812 1.460938 "/></g></g></g><g fill="#ffffff" fill-opacity="1"><g transform="translate(235.959182, 59.023537)"><g><path d="M 6.160156 3.429688 C 9.550781 5.066406 13.316406 4.980469 14.992188 1.515625 C 17.019531 -2.683594 14.289062 -4.367188 12.617188 -8.808594 C 11.535156 -11.648438 12.160156 -14.074219 12.730469 -15.253906 C 14.476562 -18.863281 16.488281 -20.210938 17.777344 -19.585938 C 18.921875 -19.035156 19.023438 -16.804688 17.40625 -13.449219 C 16.851562 -12.308594 16.171875 -11.183594 15.433594 -10.21875 C 14.777344 -8.859375 15.136719 -8.09375 16.277344 -7.542969 C 17.160156 -7.113281 17.910156 -7.34375 18.519531 -8.140625 C 19.617188 -9.5625 20.675781 -11.1875 21.457031 -12.808594 C 23.824219 -17.710938 23.15625 -21.214844 19.433594 -23.011719 C 15.566406 -24.882812 11.820312 -22.964844 8.707031 -16.515625 C 7.460938 -13.9375 6.382812 -9.640625 10.914062 -2.179688 C 11.140625 -1.796875 11.476562 -1.089844 11.195312 -0.5 C 10.730469 0.457031 9.285156 0.441406 8.105469 -0.128906 C 6.59375 -0.859375 5.773438 -1.980469 5.722656 -3.1875 C 5.671875 -4.214844 5.242188 -4.921875 4.464844 -5.292969 C 3.949219 -5.542969 3.332031 -5.390625 2.832031 -4.359375 C 1.460938 -1.519531 3.136719 1.96875 6.160156 3.429688 Z M 6.160156 3.429688 "/></g></g></g><g fill="#ffffff" fill-opacity="1"><g transform="translate(254.074012, 68.354192)"><g/></g></g><g fill="#ffffff" fill-opacity="1"><g transform="translate(265.725881, 76.021347)"><g><path d="M 2.371094 2.515625 C 3.890625 3.824219 4.648438 3.125 5.554688 2.070312 C 5.554688 2.070312 6.753906 0.671875 7.417969 -0.160156 C 8.292969 -1.246094 9.144531 -2.238281 9.9375 -3.226562 C 10.632812 -4.035156 11.4375 -4.097656 12.246094 -3.40625 L 14.296875 -1.648438 C 15.105469 -0.953125 15.164062 -0.144531 14.472656 0.660156 C 13.617188 1.597656 12.765625 2.589844 11.828125 3.621094 C 11.101562 4.402344 9.90625 5.800781 9.90625 5.800781 C 9 6.855469 8.707031 7.953125 9.917969 8.992188 C 11.4375 10.296875 12.199219 9.597656 13.105469 8.542969 C 13.105469 8.542969 14.300781 7.144531 14.964844 6.3125 C 16.53125 4.421875 17.9375 2.71875 19.324219 1.101562 C 21.429688 -1.351562 23.484375 -3.683594 25.886719 -6.421875 C 26.925781 -7.632812 28.355469 -9.050781 29.421875 -10.292969 C 30.113281 -11.097656 30.542969 -11.917969 28.898438 -13.328125 C 27.375 -14.632812 26.566406 -13.816406 25.714844 -12.824219 C 24.730469 -11.671875 23.679688 -10.199219 22.75 -9.113281 L 18.835938 -4.488281 C 18.175781 -3.65625 17.367188 -3.59375 16.5625 -4.285156 L 14.511719 -6.042969 C 13.703125 -6.738281 13.640625 -7.546875 14.363281 -8.324219 L 18.339844 -12.894531 C 19.378906 -14.109375 20.808594 -15.523438 21.871094 -16.765625 C 22.566406 -17.574219 22.996094 -18.390625 21.351562 -19.800781 C 19.828125 -21.105469 19.019531 -20.289062 18.167969 -19.296875 C 17.183594 -18.148438 16.132812 -16.675781 15.203125 -15.585938 C 12.863281 -12.796875 10.867188 -10.410156 8.765625 -7.957031 C 7.378906 -6.339844 5.910156 -4.6875 4.28125 -2.851562 C 3.554688 -2.070312 2.355469 -0.675781 2.355469 -0.675781 C 1.453125 0.382812 1.15625 1.476562 2.371094 2.515625 Z M 2.371094 2.515625 "/></g></g></g><g fill="#ffffff" fill-opacity="1"><g transform="translate(281.78124, 90.394132)"><g><path d="M 2.128906 3.082031 C 2.421875 3.421875 3.636719 4.320312 4.769531 5.503906 C 6.496094 7.3125 8.375 9.417969 9.273438 8.640625 C 10.941406 7.195312 9.21875 4.953125 8.066406 3.625 C 6.886719 2.261719 6.152344 1.601562 7.234375 0.664062 L 10.511719 -2.175781 C 11.007812 -2.605469 11.730469 -2.582031 12.105469 -2.148438 C 12.667969 -1.5 14.910156 1.214844 16.085938 0.195312 C 17.414062 -0.957031 16.082031 -2.996094 15.039062 -4.203125 C 14.527344 -4.789062 14.417969 -5.289062 15.316406 -6.066406 C 16.210938 -6.84375 20.054688 -10.28125 21.230469 -11.300781 C 22.714844 -12.585938 23.453125 -11.113281 24.710938 -9.660156 C 25.835938 -8.359375 27.402344 -7.117188 28.886719 -8.402344 C 29.378906 -8.832031 29.539062 -9.835938 28.867188 -10.609375 C 28.199219 -11.382812 24.574219 -15.875 23.6875 -16.839844 C 22.800781 -17.800781 21.585938 -17.078125 20.503906 -16.140625 C 19.421875 -15.203125 18.324219 -14.03125 17.332031 -13.175781 C 14.609375 -10.761719 12.285156 -8.691406 9.839844 -6.574219 C 8.234375 -5.183594 6.320312 -3.578125 4.4375 -2.003906 C 3.605469 -1.335938 2.214844 -0.132812 2.214844 -0.132812 C 0.824219 1.074219 1.460938 2.308594 2.128906 3.082031 Z M 2.128906 3.082031 "/></g></g></g><g fill="#ffffff" fill-opacity="1"><g transform="translate(293.746743, 104.677679)"><g><path d="M 6.5 10.902344 C 6.921875 11.554688 7.804688 12.398438 8.628906 11.867188 C 9.421875 11.355469 9.304688 10.648438 10.832031 7.425781 C 11.605469 5.757812 12.902344 3.996094 14.226562 2.652344 C 14.757812 2.945312 15.445312 3.183594 16.28125 3.421875 C 17.433594 3.699219 19.597656 3.425781 22.207031 1.742188 C 24.925781 -0.0117188 31.128906 -5.867188 28.023438 -10.679688 C 26.339844 -13.292969 24.734375 -14.496094 22.566406 -13.101562 C 21.363281 -12.324219 20.113281 -11.320312 19.011719 -10.609375 C 15.972656 -8.601562 13.382812 -6.882812 10.667969 -5.128906 C 8.878906 -3.976562 7 -2.8125 4.914062 -1.515625 C 4 -0.972656 2.453125 0.0273438 2.453125 0.0273438 C 1.28125 0.78125 0.6875 1.746094 1.554688 3.085938 C 2.640625 4.773438 3.566406 4.320312 4.734375 3.566406 C 4.734375 3.566406 6.285156 2.570312 7.15625 1.957031 C 7.753906 1.523438 8.269531 1.191406 8.679688 0.925781 C 9.574219 0.347656 10.148438 0.0273438 10.558594 -0.0898438 C 10.714844 -0.144531 10.851562 -0.0859375 10.917969 0.015625 C 11.007812 0.152344 10.980469 0.414062 10.796875 0.582031 C 9.308594 2.125 7.871094 4.804688 7.019531 6.574219 C 6.234375 8.152344 5.945312 9.214844 6.210938 10.308594 C 6.246094 10.433594 6.34375 10.664062 6.5 10.902344 Z M 15.972656 -1.734375 C 15.285156 -2.800781 15.671875 -3.636719 16.601562 -4.234375 L 22.035156 -7.738281 C 23.695312 -8.859375 24.507812 -9.335938 25.042969 -8.511719 C 25.863281 -7.238281 24.242188 -4.390625 21.148438 -2.394531 C 18.773438 -0.863281 16.707031 -0.601562 15.972656 -1.734375 Z M 15.972656 -1.734375 "/></g></g></g><g fill="#ffffff" fill-opacity="1"><g transform="translate(304.022636, 121.283177)"><g><path d="M 1.1875 3.554688 C 1.375 3.960938 2.289062 5.160156 3.050781 6.613281 C 4.207031 8.828125 5.425781 11.375 6.503906 10.878906 C 8.511719 9.953125 7.476562 7.320312 6.738281 5.722656 C 5.984375 4.089844 5.464844 3.25 6.765625 2.648438 L 10.703125 0.832031 C 11.296875 0.558594 11.984375 0.78125 12.226562 1.300781 C 12.585938 2.082031 13.984375 5.3125 15.398438 4.660156 C 16.996094 3.921875 16.28125 1.59375 15.613281 0.144531 C 15.289062 -0.5625 15.320312 -1.074219 16.398438 -1.570312 C 17.476562 -2.066406 22.125 -4.300781 23.535156 -4.953125 C 25.320312 -5.773438 25.617188 -4.152344 26.421875 -2.40625 C 27.140625 -0.847656 28.296875 0.78125 30.082031 -0.0390625 C 30.675781 -0.3125 31.109375 -1.234375 30.679688 -2.164062 C 30.253906 -3.089844 28.023438 -8.417969 27.4375 -9.589844 C 26.851562 -10.761719 25.484375 -10.402344 24.183594 -9.800781 C 22.882812 -9.203125 21.503906 -8.382812 20.3125 -7.835938 C 17.023438 -6.273438 14.214844 -4.933594 11.28125 -3.582031 C 9.347656 -2.6875 7.066406 -1.679688 4.820312 -0.691406 C 3.835938 -0.28125 2.164062 0.488281 2.164062 0.488281 C 0.492188 1.261719 0.757812 2.625 1.1875 3.554688 Z M 1.1875 3.554688 "/></g></g></g><g fill="#ffffff" fill-opacity="1"><g transform="translate(311.519234, 138.65818)"><g><path d="M 6.683594 2.058594 C 7.046875 3.1875 7.707031 3.234375 9.496094 2.785156 C 14.582031 1.492188 15.621094 1.242188 22.625 -0.628906 C 24.15625 -1.078125 26.105469 -1.578125 27.660156 -2.078125 C 28.675781 -2.40625 29.46875 -2.875 28.804688 -4.941406 C 28.1875 -6.847656 27.070312 -6.574219 25.824219 -6.175781 C 24.386719 -5.710938 22.707031 -5.039062 21.359375 -4.5625 C 15.074219 -2.320312 8.515625 -0.121094 7.816406 0.105469 C 6.800781 0.429688 6.34375 1.007812 6.683594 2.058594 Z M 0.890625 4.226562 C 1.078125 4.8125 1.421875 5.34375 1.820312 5.519531 C 2.285156 5.753906 2.878906 5.734375 3.347656 5.585938 C 3.816406 5.433594 4.246094 5.167969 4.507812 4.78125 C 5.136719 3.804688 5.160156 3.066406 4.984375 2.519531 C 4.84375 2.09375 4.523438 1.765625 4.230469 1.515625 C 3.832031 1.214844 3.121094 1.144531 2.496094 1.34375 C 1.992188 1.507812 1.496094 1.839844 1.078125 2.273438 C 0.644531 2.800781 0.675781 3.566406 0.890625 4.226562 Z M 0.890625 4.226562 "/></g></g></g><g fill="#ffffff" fill-opacity="1"><g transform="translate(315.527045, 151.951185)"><g/></g></g><g fill="#ffffff" fill-opacity="1"><g transform="translate(130.518098, 315.604796)"><g><path d="M 1.199219 0.128906 C 1.898438 0.128906 1.941406 -0.226562 1.941406 -0.714844 C 1.941406 -0.714844 1.941406 -1.355469 1.929688 -1.726562 C 1.914062 -2.214844 1.914062 -2.671875 1.898438 -3.113281 L 1.914062 -4.796875 L 1.929688 -7.582031 C 1.929688 -8.140625 1.984375 -8.839844 1.984375 -9.410156 C 1.984375 -9.78125 1.914062 -10.097656 1.15625 -10.097656 C 0.457031 -10.097656 0.429688 -9.695312 0.429688 -9.238281 C 0.429688 -8.710938 0.484375 -8.082031 0.484375 -7.582031 C 0.5 -6.3125 0.515625 -5.226562 0.515625 -4.097656 C 0.515625 -3.355469 0.5 -2.585938 0.484375 -1.726562 C 0.472656 -1.355469 0.472656 -0.714844 0.472656 -0.714844 C 0.472656 -0.226562 0.644531 0.128906 1.199219 0.128906 Z M 1.199219 0.128906 "/></g></g></g><g fill="#ffffff" fill-opacity="1"><g transform="translate(135.54484, 315.604796)"><g><path d="M 5.910156 -3.113281 L 5.910156 -4.796875 L 5.941406 -7.582031 C 5.941406 -8.140625 5.996094 -8.839844 5.996094 -9.410156 C 5.996094 -9.78125 5.925781 -10.097656 5.167969 -10.097656 C 4.46875 -10.097656 4.441406 -9.695312 4.441406 -9.238281 C 4.441406 -8.710938 4.5 -8.082031 4.5 -7.582031 C 4.511719 -6.382812 4.554688 -5.054688 4.554688 -3.96875 C 4.554688 -3.828125 4.484375 -3.753906 4.414062 -3.753906 C 4.339844 -3.753906 4.269531 -3.8125 4.226562 -3.925781 C 3.527344 -5.941406 2.441406 -9.269531 2.285156 -9.640625 C 2.070312 -10.152344 1.726562 -10.097656 1.15625 -10.097656 L 1.113281 -10.097656 C 0.457031 -10.082031 0.429688 -9.683594 0.429688 -9.238281 C 0.429688 -8.710938 0.484375 -8.082031 0.484375 -7.582031 C 0.5 -6.3125 0.515625 -5.226562 0.515625 -4.097656 C 0.515625 -3.355469 0.5 -2.585938 0.484375 -1.726562 C 0.472656 -1.355469 0.472656 -0.714844 0.472656 -0.714844 C 0.472656 -0.226562 0.644531 0.128906 1.199219 0.128906 C 1.898438 0.128906 1.941406 -0.226562 1.941406 -0.714844 C 1.941406 -0.714844 1.941406 -1.355469 1.929688 -1.726562 C 1.914062 -2.214844 1.914062 -2.671875 1.898438 -3.113281 L 1.898438 -5.398438 C 1.914062 -5.539062 2 -5.613281 2.097656 -5.613281 C 2.183594 -5.613281 2.269531 -5.554688 2.3125 -5.441406 L 3.828125 -0.769531 C 4.042969 -0.128906 4.414062 0.128906 5.210938 0.128906 C 5.910156 0.128906 5.953125 -0.226562 5.953125 -0.714844 C 5.953125 -0.714844 5.953125 -1.355469 5.941406 -1.726562 C 5.925781 -2.214844 5.925781 -2.671875 5.910156 -3.113281 Z M 5.910156 -3.113281 "/></g></g></g><g fill="#ffffff" fill-opacity="1"><g transform="translate(144.582143, 315.604796)"><g><path d="M 2.457031 0.144531 C 3.769531 0.144531 4.941406 -0.457031 4.941406 -1.800781 C 4.941406 -3.425781 3.828125 -3.542969 2.628906 -4.683594 C 1.855469 -5.414062 1.683594 -6.269531 1.683594 -6.726562 C 1.683594 -8.125 2.113281 -8.855469 2.613281 -8.855469 C 3.054688 -8.855469 3.425781 -8.167969 3.425781 -6.867188 C 3.425781 -6.425781 3.382812 -5.96875 3.296875 -5.554688 C 3.296875 -5.027344 3.527344 -4.839844 3.96875 -4.839844 C 4.3125 -4.839844 4.511719 -5.027344 4.582031 -5.371094 C 4.710938 -5.984375 4.796875 -6.65625 4.796875 -7.28125 C 4.796875 -9.183594 4.054688 -10.183594 2.613281 -10.183594 C 1.113281 -10.183594 0.226562 -9.011719 0.226562 -6.511719 C 0.226562 -5.511719 0.542969 -4 3.097656 -2.34375 C 3.226562 -2.257812 3.441406 -2.085938 3.441406 -1.855469 C 3.441406 -1.484375 2.984375 -1.269531 2.527344 -1.269531 C 1.941406 -1.269531 1.515625 -1.5 1.3125 -1.871094 C 1.140625 -2.183594 0.898438 -2.34375 0.601562 -2.34375 C 0.398438 -2.34375 0.226562 -2.199219 0.226562 -1.800781 C 0.226562 -0.699219 1.285156 0.144531 2.457031 0.144531 Z M 2.457031 0.144531 "/></g></g></g><g fill="#ffffff" fill-opacity="1"><g transform="translate(152.563287, 315.604796)"><g><path d="M 2.941406 0.144531 C 3.414062 0.144531 3.554688 -0.113281 3.554688 -0.699219 L 3.511719 -5.425781 C 3.511719 -5.839844 3.554688 -7.582031 3.554688 -8.125 C 3.554688 -8.453125 3.640625 -8.609375 4.011719 -8.667969 C 4.285156 -8.710938 4.457031 -8.683594 4.941406 -8.78125 C 5.425781 -8.882812 5.597656 -9.3125 5.597656 -9.539062 C 5.597656 -9.769531 5.371094 -10.039062 5.011719 -10.039062 C 3.828125 -10.039062 2.257812 -10.054688 0.699219 -10.054688 C 0.429688 -10.054688 0.144531 -9.796875 0.144531 -9.4375 C 0.144531 -9.082031 0.0585938 -8.753906 0.914062 -8.753906 C 1.769531 -8.753906 2.113281 -8.753906 2.113281 -7.96875 L 2.128906 -7.726562 C 2.199219 -6.453125 2.15625 -5.226562 2.15625 -4.097656 C 2.15625 -3.355469 2.140625 -2.484375 2.128906 -1.628906 C 2.113281 -1.257812 2.113281 -0.613281 2.113281 -0.613281 C 2.113281 0.0273438 2.46875 0.144531 2.941406 0.144531 Z M 2.941406 0.144531 "/></g></g></g><g fill="#ffffff" fill-opacity="1"><g transform="translate(160.915509, 315.604796)"><g><path d="M 0.785156 0.144531 C 1.3125 0.144531 1.527344 0.0703125 1.65625 -0.386719 C 1.742188 -0.699219 1.785156 -0.914062 1.855469 -1.113281 C 1.957031 -1.398438 2.15625 -1.640625 2.683594 -1.640625 C 3.214844 -1.640625 3.414062 -1.398438 3.511719 -1.113281 C 3.585938 -0.914062 3.628906 -0.699219 3.710938 -0.386719 C 3.839844 0.0703125 4.054688 0.144531 4.582031 0.144531 C 4.984375 0.144531 5.140625 -0.0585938 5.140625 -0.3125 C 5.140625 -0.398438 5.125 -0.484375 5.097656 -0.585938 C 4.957031 -1.058594 3.898438 -6.582031 3.65625 -8.039062 C 3.597656 -8.398438 3.484375 -9.140625 3.484375 -9.523438 C 3.484375 -9.910156 3.199219 -10.152344 2.683594 -10.152344 C 2.171875 -10.152344 1.886719 -9.910156 1.886719 -9.523438 C 1.886719 -9.140625 1.769531 -8.398438 1.714844 -8.039062 C 1.472656 -6.582031 0.414062 -1.058594 0.269531 -0.585938 C 0.242188 -0.484375 0.226562 -0.398438 0.226562 -0.3125 C 0.226562 -0.0585938 0.386719 0.144531 0.785156 0.144531 Z M 2.683594 -2.828125 C 2.414062 -2.828125 2.140625 -2.855469 2.183594 -3.226562 C 2.242188 -3.671875 2.554688 -6.539062 2.683594 -6.539062 C 2.8125 -6.539062 3.128906 -3.671875 3.183594 -3.226562 C 3.226562 -2.855469 2.96875 -2.828125 2.683594 -2.828125 Z M 2.683594 -2.828125 "/></g></g></g><g fill="#ffffff" fill-opacity="1"><g transform="translate(169.096461, 315.604796)"><g><path d="M 5.910156 -3.113281 L 5.910156 -4.796875 L 5.941406 -7.582031 C 5.941406 -8.140625 5.996094 -8.839844 5.996094 -9.410156 C 5.996094 -9.78125 5.925781 -10.097656 5.167969 -10.097656 C 4.46875 -10.097656 4.441406 -9.695312 4.441406 -9.238281 C 4.441406 -8.710938 4.5 -8.082031 4.5 -7.582031 C 4.511719 -6.382812 4.554688 -5.054688 4.554688 -3.96875 C 4.554688 -3.828125 4.484375 -3.753906 4.414062 -3.753906 C 4.339844 -3.753906 4.269531 -3.8125 4.226562 -3.925781 C 3.527344 -5.941406 2.441406 -9.269531 2.285156 -9.640625 C 2.070312 -10.152344 1.726562 -10.097656 1.15625 -10.097656 L 1.113281 -10.097656 C 0.457031 -10.082031 0.429688 -9.683594 0.429688 -9.238281 C 0.429688 -8.710938 0.484375 -8.082031 0.484375 -7.582031 C 0.5 -6.3125 0.515625 -5.226562 0.515625 -4.097656 C 0.515625 -3.355469 0.5 -2.585938 0.484375 -1.726562 C 0.472656 -1.355469 0.472656 -0.714844 0.472656 -0.714844 C 0.472656 -0.226562 0.644531 0.128906 1.199219 0.128906 C 1.898438 0.128906 1.941406 -0.226562 1.941406 -0.714844 C 1.941406 -0.714844 1.941406 -1.355469 1.929688 -1.726562 C 1.914062 -2.214844 1.914062 -2.671875 1.898438 -3.113281 L 1.898438 -5.398438 C 1.914062 -5.539062 2 -5.613281 2.097656 -5.613281 C 2.183594 -5.613281 2.269531 -5.554688 2.3125 -5.441406 L 3.828125 -0.769531 C 4.042969 -0.128906 4.414062 0.128906 5.210938 0.128906 C 5.910156 0.128906 5.953125 -0.226562 5.953125 -0.714844 C 5.953125 -0.714844 5.953125 -1.355469 5.941406 -1.726562 C 5.925781 -2.214844 5.925781 -2.671875 5.910156 -3.113281 Z M 5.910156 -3.113281 "/></g></g></g><g fill="#ffffff" fill-opacity="1"><g transform="translate(178.133762, 315.604796)"><g><path d="M 2.941406 0.144531 C 3.414062 0.144531 3.554688 -0.113281 3.554688 -0.699219 L 3.511719 -5.425781 C 3.511719 -5.839844 3.554688 -7.582031 3.554688 -8.125 C 3.554688 -8.453125 3.640625 -8.609375 4.011719 -8.667969 C 4.285156 -8.710938 4.457031 -8.683594 4.941406 -8.78125 C 5.425781 -8.882812 5.597656 -9.3125 5.597656 -9.539062 C 5.597656 -9.769531 5.371094 -10.039062 5.011719 -10.039062 C 3.828125 -10.039062 2.257812 -10.054688 0.699219 -10.054688 C 0.429688 -10.054688 0.144531 -9.796875 0.144531 -9.4375 C 0.144531 -9.082031 0.0585938 -8.753906 0.914062 -8.753906 C 1.769531 -8.753906 2.113281 -8.753906 2.113281 -7.96875 L 2.128906 -7.726562 C 2.199219 -6.453125 2.15625 -5.226562 2.15625 -4.097656 C 2.15625 -3.355469 2.140625 -2.484375 2.128906 -1.628906 C 2.113281 -1.257812 2.113281 -0.613281 2.113281 -0.613281 C 2.113281 0.0273438 2.46875 0.144531 2.941406 0.144531 Z M 2.941406 0.144531 "/></g></g></g><g fill="#ffffff" fill-opacity="1"><g transform="translate(186.485981, 315.604796)"><g/></g></g><g fill="#ffffff" fill-opacity="1"><g transform="translate(192.240611, 315.604796)"><g><path d="M 2.457031 0.144531 C 3.769531 0.144531 4.941406 -0.457031 4.941406 -1.800781 C 4.941406 -3.425781 3.828125 -3.542969 2.628906 -4.683594 C 1.855469 -5.414062 1.683594 -6.269531 1.683594 -6.726562 C 1.683594 -8.125 2.113281 -8.855469 2.613281 -8.855469 C 3.054688 -8.855469 3.425781 -8.167969 3.425781 -6.867188 C 3.425781 -6.425781 3.382812 -5.96875 3.296875 -5.554688 C 3.296875 -5.027344 3.527344 -4.839844 3.96875 -4.839844 C 4.3125 -4.839844 4.511719 -5.027344 4.582031 -5.371094 C 4.710938 -5.984375 4.796875 -6.65625 4.796875 -7.28125 C 4.796875 -9.183594 4.054688 -10.183594 2.613281 -10.183594 C 1.113281 -10.183594 0.226562 -9.011719 0.226562 -6.511719 C 0.226562 -5.511719 0.542969 -4 3.097656 -2.34375 C 3.226562 -2.257812 3.441406 -2.085938 3.441406 -1.855469 C 3.441406 -1.484375 2.984375 -1.269531 2.527344 -1.269531 C 1.941406 -1.269531 1.515625 -1.5 1.3125 -1.871094 C 1.140625 -2.183594 0.898438 -2.34375 0.601562 -2.34375 C 0.398438 -2.34375 0.226562 -2.199219 0.226562 -1.800781 C 0.226562 -0.699219 1.285156 0.144531 2.457031 0.144531 Z M 2.457031 0.144531 "/></g></g></g><g fill="#ffffff" fill-opacity="1"><g transform="translate(200.221754, 315.604796)"><g><path d="M 1.300781 0.144531 C 1.457031 0.144531 1.96875 0.0273438 2.542969 0 C 3.414062 -0.0429688 4.398438 -0.0585938 4.398438 -0.472656 C 4.398438 -1.242188 3.414062 -1.300781 2.800781 -1.300781 C 2.171875 -1.300781 1.828125 -1.257812 1.828125 -1.757812 L 1.828125 -3.269531 C 1.828125 -3.5 2 -3.683594 2.199219 -3.683594 C 2.5 -3.683594 3.726562 -3.65625 3.726562 -4.199219 C 3.726562 -4.8125 2.882812 -4.925781 2.328125 -4.925781 C 2.054688 -4.925781 1.898438 -5.011719 1.898438 -5.425781 C 1.898438 -5.839844 1.871094 -7.640625 1.871094 -8.183594 C 1.871094 -8.867188 2.425781 -8.726562 3.097656 -8.726562 C 3.699219 -8.726562 4.382812 -8.855469 4.382812 -9.539062 C 4.382812 -9.769531 4.15625 -10.039062 3.796875 -10.039062 C 3.441406 -10.039062 1.429688 -10.109375 0.972656 -10.097656 C 0.515625 -10.082031 0.429688 -9.597656 0.429688 -9.097656 C 0.429688 -8.597656 0.484375 -8.039062 0.484375 -7.582031 C 0.5 -6.3125 0.515625 -5.226562 0.515625 -4.097656 C 0.515625 -3.355469 0.5 -2.484375 0.484375 -1.628906 C 0.472656 -1.257812 0.472656 -0.613281 0.472656 -0.613281 C 0.472656 0.0273438 0.941406 0.144531 1.300781 0.144531 Z M 1.300781 0.144531 "/></g></g></g><g fill="#ffffff" fill-opacity="1"><g transform="translate(207.660536, 315.604796)"><g><path d="M 4.425781 0.15625 C 4.699219 0.15625 5.113281 0.0585938 5.113281 -0.285156 C 5.113281 -0.613281 4.882812 -0.714844 4.226562 -1.769531 C 3.882812 -2.3125 3.613281 -3.027344 3.46875 -3.671875 C 3.65625 -3.769531 3.855469 -3.925781 4.085938 -4.125 C 4.382812 -4.414062 4.710938 -5.097656 4.710938 -6.183594 C 4.710938 -7.3125 4.167969 -10.238281 2.171875 -10.238281 C 1.085938 -10.238281 0.429688 -9.996094 0.429688 -9.097656 C 0.429688 -8.597656 0.484375 -8.039062 0.484375 -7.582031 C 0.5 -6.3125 0.515625 -5.226562 0.515625 -4.097656 C 0.515625 -3.355469 0.5 -2.585938 0.484375 -1.726562 C 0.472656 -1.355469 0.472656 -0.714844 0.472656 -0.714844 C 0.472656 -0.226562 0.644531 0.128906 1.199219 0.128906 C 1.898438 0.128906 1.941406 -0.226562 1.941406 -0.714844 C 1.941406 -0.714844 1.941406 -1.355469 1.929688 -1.726562 C 1.914062 -1.984375 1.914062 -2.199219 1.914062 -2.371094 C 1.914062 -2.742188 1.929688 -2.96875 1.96875 -3.113281 C 1.984375 -3.171875 2.027344 -3.199219 2.070312 -3.199219 C 2.128906 -3.199219 2.199219 -3.140625 2.214844 -3.054688 C 2.386719 -2.328125 2.898438 -1.398438 3.257812 -0.8125 C 3.570312 -0.285156 3.828125 0 4.199219 0.128906 C 4.242188 0.144531 4.328125 0.15625 4.425781 0.15625 Z M 2.511719 -5.011719 C 2.070312 -5.011719 1.898438 -5.285156 1.898438 -5.667969 L 1.898438 -7.925781 C 1.886719 -8.625 1.898438 -8.953125 2.242188 -8.953125 C 2.769531 -8.953125 3.296875 -7.941406 3.296875 -6.65625 C 3.296875 -5.667969 2.984375 -5.011719 2.511719 -5.011719 Z M 2.511719 -5.011719 "/></g></g></g><g fill="#ffffff" fill-opacity="1"><g transform="translate(215.413323, 315.604796)"><g><path d="M 2.742188 0.144531 C 3.542969 0.144531 3.882812 -0.101562 3.882812 -0.484375 C 3.882812 -0.871094 4 -1.613281 4.054688 -1.96875 C 4.296875 -3.425781 5.070312 -8.953125 5.210938 -9.425781 C 5.242188 -9.523438 5.253906 -9.609375 5.253906 -9.695312 C 5.253906 -9.953125 5.097656 -10.152344 4.699219 -10.152344 C 4.167969 -10.152344 3.957031 -10.082031 3.828125 -9.625 C 3.742188 -9.3125 3.554688 -8.3125 3.414062 -7.382812 C 2.914062 -4.027344 2.914062 -3.527344 2.742188 -3.527344 C 2.585938 -3.527344 2.628906 -3.742188 2.070312 -7.425781 C 1.929688 -8.355469 1.742188 -9.3125 1.65625 -9.625 C 1.527344 -10.082031 1.3125 -10.152344 0.785156 -10.152344 C 0.386719 -10.152344 0.226562 -9.953125 0.226562 -9.695312 C 0.226562 -9.609375 0.242188 -9.523438 0.269531 -9.425781 C 0.414062 -8.953125 1.183594 -3.425781 1.429688 -1.96875 C 1.484375 -1.613281 1.597656 -0.871094 1.597656 -0.484375 C 1.597656 -0.101562 1.941406 0.144531 2.742188 0.144531 Z M 2.742188 0.144531 "/></g></g></g><g fill="#ffffff" fill-opacity="1"><g transform="translate(223.580012, 315.604796)"><g><path d="M 1.199219 0.128906 C 1.898438 0.128906 1.941406 -0.226562 1.941406 -0.714844 C 1.941406 -0.714844 1.941406 -1.355469 1.929688 -1.726562 C 1.914062 -2.214844 1.914062 -2.671875 1.898438 -3.113281 L 1.914062 -4.796875 L 1.929688 -7.582031 C 1.929688 -8.140625 1.984375 -8.839844 1.984375 -9.410156 C 1.984375 -9.78125 1.914062 -10.097656 1.15625 -10.097656 C 0.457031 -10.097656 0.429688 -9.695312 0.429688 -9.238281 C 0.429688 -8.710938 0.484375 -8.082031 0.484375 -7.582031 C 0.5 -6.3125 0.515625 -5.226562 0.515625 -4.097656 C 0.515625 -3.355469 0.5 -2.585938 0.484375 -1.726562 C 0.472656 -1.355469 0.472656 -0.714844 0.472656 -0.714844 C 0.472656 -0.226562 0.644531 0.128906 1.199219 0.128906 Z M 1.199219 0.128906 "/></g></g></g><g fill="#ffffff" fill-opacity="1"><g transform="translate(228.606752, 315.604796)"><g><path d="M 2.882812 0.101562 C 4.3125 0.101562 5.199219 -1.070312 5.199219 -3.113281 C 5.199219 -3.3125 5.054688 -3.640625 4.542969 -3.640625 C 4.183594 -3.640625 3.839844 -3.628906 3.839844 -3.070312 C 3.839844 -1.957031 3.457031 -1.199219 2.882812 -1.199219 C 2.242188 -1.199219 1.8125 -2.828125 1.8125 -5.242188 C 1.8125 -7.410156 2.328125 -8.882812 3.097656 -8.882812 C 3.585938 -8.882812 3.914062 -7.925781 3.914062 -6.511719 C 3.96875 -6.199219 4.125 -5.953125 4.613281 -5.953125 C 5.097656 -5.953125 5.339844 -6.183594 5.339844 -6.613281 C 5.339844 -8.753906 4.425781 -10.183594 3.070312 -10.183594 C 1.484375 -10.183594 0.429688 -8.152344 0.429688 -5.113281 C 0.429688 -1.84375 1.34375 0.101562 2.882812 0.101562 Z M 2.882812 0.101562 "/></g></g></g><g fill="#ffffff" fill-opacity="1"><g transform="translate(236.987516, 315.604796)"><g><path d="M 1.300781 0.144531 C 1.457031 0.144531 1.96875 0.0273438 2.542969 0 C 3.414062 -0.0429688 4.398438 -0.0585938 4.398438 -0.472656 C 4.398438 -1.242188 3.414062 -1.300781 2.800781 -1.300781 C 2.171875 -1.300781 1.828125 -1.257812 1.828125 -1.757812 L 1.828125 -3.269531 C 1.828125 -3.5 2 -3.683594 2.199219 -3.683594 C 2.5 -3.683594 3.726562 -3.65625 3.726562 -4.199219 C 3.726562 -4.8125 2.882812 -4.925781 2.328125 -4.925781 C 2.054688 -4.925781 1.898438 -5.011719 1.898438 -5.425781 C 1.898438 -5.839844 1.871094 -7.640625 1.871094 -8.183594 C 1.871094 -8.867188 2.425781 -8.726562 3.097656 -8.726562 C 3.699219 -8.726562 4.382812 -8.855469 4.382812 -9.539062 C 4.382812 -9.769531 4.15625 -10.039062 3.796875 -10.039062 C 3.441406 -10.039062 1.429688 -10.109375 0.972656 -10.097656 C 0.515625 -10.082031 0.429688 -9.597656 0.429688 -9.097656 C 0.429688 -8.597656 0.484375 -8.039062 0.484375 -7.582031 C 0.5 -6.3125 0.515625 -5.226562 0.515625 -4.097656 C 0.515625 -3.355469 0.5 -2.484375 0.484375 -1.628906 C 0.472656 -1.257812 0.472656 -0.613281 0.472656 -0.613281 C 0.472656 0.0273438 0.941406 0.144531 1.300781 0.144531 Z M 1.300781 0.144531 "/></g></g></g><g fill="#ffffff" fill-opacity="1"><g transform="translate(244.426298, 315.604796)"><g><path d="M 2.457031 0.144531 C 3.769531 0.144531 4.941406 -0.457031 4.941406 -1.800781 C 4.941406 -3.425781 3.828125 -3.542969 2.628906 -4.683594 C 1.855469 -5.414062 1.683594 -6.269531 1.683594 -6.726562 C 1.683594 -8.125 2.113281 -8.855469 2.613281 -8.855469 C 3.054688 -8.855469 3.425781 -8.167969 3.425781 -6.867188 C 3.425781 -6.425781 3.382812 -5.96875 3.296875 -5.554688 C 3.296875 -5.027344 3.527344 -4.839844 3.96875 -4.839844 C 4.3125 -4.839844 4.511719 -5.027344 4.582031 -5.371094 C 4.710938 -5.984375 4.796875 -6.65625 4.796875 -7.28125 C 4.796875 -9.183594 4.054688 -10.183594 2.613281 -10.183594 C 1.113281 -10.183594 0.226562 -9.011719 0.226562 -6.511719 C 0.226562 -5.511719 0.542969 -4 3.097656 -2.34375 C 3.226562 -2.257812 3.441406 -2.085938 3.441406 -1.855469 C 3.441406 -1.484375 2.984375 -1.269531 2.527344 -1.269531 C 1.941406 -1.269531 1.515625 -1.5 1.3125 -1.871094 C 1.140625 -2.183594 0.898438 -2.34375 0.601562 -2.34375 C 0.398438 -2.34375 0.226562 -2.199219 0.226562 -1.800781 C 0.226562 -0.699219 1.285156 0.144531 2.457031 0.144531 Z M 2.457031 0.144531 "/></g></g></g><g clip-path="url(#efa3541499)"><path fill="#efb07d" d="M 106.65625 299.320312 C 105.558594 308.585938 104.671875 309.472656 95.40625 310.570312 C 95.425781 310.570312 95.445312 310.574219 95.460938 310.578125 L 95.464844 310.578125 C 104.671875 311.667969 105.5625 312.574219 106.65625 321.820312 C 107.75 312.554688 108.640625 311.664062 117.90625 310.570312 C 108.640625 309.472656 107.75 308.585938 106.65625 299.320312 Z M 106.65625 299.320312 " fill-opacity="1" fill-rule="nonzero"/></g><g clip-path="url(#51d1d552c3)"><path fill="#efb07d" d="M 273.703125 299.320312 C 272.605469 308.585938 271.714844 309.472656 262.453125 310.570312 C 262.46875 310.570312 262.488281 310.574219 262.507812 310.578125 C 271.71875 311.667969 272.605469 312.574219 273.703125 321.820312 C 274.796875 312.554688 275.6875 311.664062 284.953125 310.570312 C 275.6875 309.472656 274.796875 308.585938 273.703125 299.320312 Z M 273.703125 299.320312 " fill-opacity="1" fill-rule="nonzero"/></g></svg>